<?xml version="1.0" encoding="UTF-8"?>
<svg id="Layer_1" xmlns="http://www.w3.org/2000/svg" xmlns:xlink="http://www.w3.org/1999/xlink" version="1.1" viewBox="0 0 1333 434">
  <!-- Generator: Adobe Illustrator 29.5.0, SVG Export Plug-In . SVG Version: 2.1.0 Build 137)  -->
  <defs>
    <style>
      .st0 {
        fill: #9fbec8;
      }

      .st1 {
        fill: #bfd83d;
      }

      .st2 {
        fill: #e2f2f8;
      }

      .st3 {
        fill: #134778;
      }

      .st4 {
        fill: #f27a4c;
      }

      .st5 {
        fill: #72c6d6;
      }

      .st6 {
        fill: #9f6980;
      }

      .st7 {
        fill: url(#linear-gradient1);
      }

      .st8 {
        fill: #9bccd8;
      }

      .st9 {
        fill: #3e1961;
      }

      .st10 {
        fill: #96cad8;
      }

      .st11 {
        fill: #d2dae0;
      }

      .st12 {
        fill: #1b658d;
      }

      .st13 {
        fill: #b16ebf;
      }

      .st14 {
        fill: url(#linear-gradient);
      }

      .st15 {
        fill: #6a5495;
      }

      .st16 {
        fill: none;
        stroke: #fff;
        stroke-width: 6px;
      }

      .st17 {
        fill: #8a52a6;
      }

      .st18 {
        fill: #b4d8ea;
      }

      .st19 {
        fill: #508b9f;
      }

      .st20 {
        fill: #6d3a91;
      }

      .st21 {
        fill: #eef1f1;
      }

      .st22 {
        fill: #57277f;
      }

      .st23 {
        fill: #fff;
      }

      .st24 {
        fill: #7ab0bf;
      }

      .st25 {
        fill: #bf88c9;
      }

      .st26 {
        fill: #98dad5;
      }

      .st27 {
        fill: #72a9c7;
      }

      .st28 {
        fill: #badfe5;
      }

      .st29 {
        fill: #bbd0d7;
      }

      .st30 {
        fill: #9a5fb0;
      }

      .st31 {
        fill: #80505f;
      }

      .st32 {
        fill: #feffff;
      }
    </style>
    <linearGradient id="linear-gradient" x1="804.18" y1="712.4" x2="805.1" y2="918.4" gradientTransform="translate(-113.28 -733.44) scale(1.15)" gradientUnits="userSpaceOnUse">
      <stop offset="0" stop-color="#519fcf"/>
      <stop offset="1" stop-color="#abdfd4"/>
    </linearGradient>
    <linearGradient id="linear-gradient1" x1="212.46" y1="43.94" x2="228.8" y2="379.75" gradientUnits="userSpaceOnUse">
      <stop offset="0" stop-color="#fa8946"/>
      <stop offset="1" stop-color="#d6504d"/>
    </linearGradient>
  </defs>
  <path class="st23" d="M235.5,178.5c24-30,27-83,25-102s-11-22-15-22-16-1-24-5-7-15-25-16-41,17-48,23c-9,5-25,9-30,21s8,35,10,40,20,30,26,39c-15-12-37-34-45-40s-29-11-41,10c-28,5-43,19-44,27s7,22,15,30c-6,14-10,22-8,33s13,23,37,25,75-7,87-11c-25,10-60,30-69,37s-33,39,8,56c0,20,13,38,38,32,8,24,22,34,46,22,16,19,87,53,77-81,35,74,57,67,60,66s15-5,22-3,37,9,54-22c-6-17-8-16-6-26s6-15,6-29-16-27-44-34-41-10-55-19c26,6,132,25,112-45,23-18-3-45-25-47,1-21-40-66-96,33,23-12,42-12,42-12,0,0-36,14-47,23,20-2,48-14,70-8-19,7-69,15-79,24,16,5,47-6,66,5-30-1-73,1-85,18,14,9,60,20,67,44-26-20-55-30-69-32,6,9,35,31,38,46-24-19-25-32-54-44-11,11-13,40-14,60-7-21-5-42-3-59-13,6-38,50-43,64-1-19,19-58,33-67-19,0-46,26-57,38,0-22,51-48,59-52-15-7-81-31-89-41,21,2,53,21,77,21-7-15-54-32-68-36,27-6,68,20,77,30,2-16-17-39-28-53,20,12,32,33,37,41,0-18-17-52-30-68,23,14,36,44,38,61,6-19,2-47-11-73,24,17,22,48,25,78Z"/>
  <path class="st23" d="M317.5,48.5s-39,110-90,158c-12,12-7,28,15,8s76-127,75-166Z"/>
  <path class="st23" d="M338.5,67.5c0,4.97-4.03,9-9,9s-7-4.03-7-9,3.03-6,8-6,8,1.03,8,6Z"/>
  <ellipse class="st23" cx="325.5" cy="23.5" rx="8" ry="9"/>
  <ellipse class="st23" cx="287" cy="78" rx="8.5" ry="7.5"/>
  <circle class="st23" cx="327" cy="90" r="7.5"/>
  <circle class="st23" cx="296.5" cy="58.5" r="8"/>
  <ellipse class="st23" cx="305.5" cy="37.5" rx="9" ry="7"/>
  <circle class="st23" cx="334.5" cy="45.5" r="8"/>
  <path class="st23" d="M534.01,164.57c-3-11.4-7-24.2-23.4-24.2-14.8,0-20.6,11-20.6,20.2,0,14,9.2,20,23.2,27.2,13.4,6.6,32.2,14.6,32.2,36,0,19.8-16.4,34.8-40.4,34.8-7.8,0-13.8-1.6-18.2-3-4.2-1.2-7-2.8-8.6-3.6-1.6-4.2-3.8-19-5-28.4l5.8-1.4c3,11.2,10.4,29.4,29.4,29.4,14.4,0,22.6-8.8,22.6-22.4s-10.4-20.2-24.2-27.6c-10.8-5.8-30.2-14-30.2-35.2,0-17.6,14-32.6,37.4-32.6,7.2,0,14.4,1.4,23,4.2.6,6.6,1.6,13.6,3,25.8l-6,.8Z"/>
  <path class="st23" d="M609.41,256.17v-5.2c11-1,12.8-2.2,12.8-14.4v-30c0-15.4-5.8-23.4-19-23.4-7.8,0-15.4,4-20.6,10.2v43.2c0,12,1,13.4,12.8,14.4v5.2h-39.2v-5.2c11.6-1,13.4-2.2,13.4-14.4v-87c0-11.6-.6-12.6-13.4-13.6v-4.8c9-1.4,19.8-4.4,26.4-6.6v61.6c6.6-6.4,16.8-13.4,26.8-13.4,15,0,25.8,9.6,25.8,31.6v32.4c0,12.2,1.4,13.2,12.6,14.2v5.2h-38.4Z"/>
  <path class="st23" d="M717.2,258.37c-2.2,0-6.2-1.6-8-3.4-2.6-2.6-3.8-5.2-4.4-8.4-7.8,5-16.4,11.8-22.8,11.8-12.6,0-21.8-10.8-21.8-22.8,0-8.8,4.8-15.2,15.4-18.6,11.2-3.8,24.8-9,28.8-12v-2.6c0-13.6-6.8-21.2-16.4-21.2-4,0-7,1.6-8.8,3.8-2.4,2.6-3.8,6.4-5.6,11.8-.6,2.8-2.6,4-5.2,4-3,0-7.6-3.4-7.6-7.8,0-2.6,2.4-4.8,6-7.4,4.6-3.4,16.4-10.6,27.2-12.8,5.4,0,11.2,1.6,15,5,6,5.4,8,12.8,8,22.2v35c0,8.4,3.2,11.2,6.6,11.2,2.2,0,5-1,6.8-2.2l2,5.4-15.2,9ZM704.4,211.57l-18.2,8.2c-7.6,3.2-11.8,6.8-11.8,13.6,0,9.4,7.6,14,13.6,14,5.2,0,12.8-4,16.4-7.4v-28.4Z"/>
  <path class="st23" d="M791.2,256.17v-5.2c11.4-1.2,12.8-2.8,12.8-15.2v-30.6c0-13-4.4-21.8-17.6-21.8-8,0-15.8,5-21.6,10.4v42.6c0,13,1,13.4,12.8,14.6v5.2h-39.4v-5.2c12.6-1.2,13.6-2.4,13.6-14.4v-37.6c0-12-1.2-12.8-11.4-14.4v-4.8c8.8-1.6,17.2-3.8,24.4-7.6v14.8c3.6-2.8,7.6-5.4,12.4-8.4,5-3.4,10.4-5.8,15.8-5.8,14.6,0,24,10.2,24,28v35.6c0,12.8,1,13.4,12.2,14.6v5.2h-38Z"/>
  <path class="st23" d="M919.6,176.17c-1.8,3-5.6,8-8.4,9.4l-10.4-.6c3.4,4,5.4,10.2,5.4,16.6,0,20-16.4,29.8-32.4,29.8-2.8,0-6.2-.4-9.4-1-2.8,2-6,5.6-6,8.2,0,3.6,3,7,11.2,7,7.4,0,14.2-.2,20.4-.2,11.8,0,26.6,3.6,26.6,21.6s-21.4,35.6-45.8,35.6c-20.2,0-31.8-11-32-22,0-3.8,1.4-7.8,4.4-10.6,3.4-3.6,10.8-9.8,15-13-6.4-2-11.2-6.2-13.6-10-1.4-2.6-2-5.8-1.8-7.4,6.8-2.6,12.8-7.6,15.6-11.4-7.4-3.4-15.6-11.6-15.6-24.6,0-21,19-30.8,33.2-30.8,5.8,0,12.2,1.6,17.4,4.6,8.8-.6,17.6-1.6,25-2.8l1.2,1.6ZM861.8,261.57c-5.4,4.2-9,9.6-9,15,0,10.2,10.8,16.2,24.4,16.2,18.2,0,27.6-8.6,27.6-20.2,0-6-3-10.4-8-12.6-4.6-2.2-10.2-2.6-18.2-2.6-9,0-13.2,1.2-16.8,4.2ZM857.4,200.77c0,14.4,8,24.4,18.4,24.4,8.6-.2,16.4-7.8,16.4-22s-7.8-24.6-18.4-24.6c-8.6,0-16.4,8.2-16.4,22.2Z"/>
  <path class="st23" d="M954.4,192.37c5.6-9.2,13.4-19.6,22.8-19.6,6.6,0,10.8,4.8,10.8,9,0,3.4-2,6.8-5.6,8.6-2,.8-3.6.6-4.8-.4-2.6-2.8-4.6-3.8-7.6-3.8-5.2,0-12,6.4-16,17.4v32.8c0,12.4.8,13.6,15.4,14.6v5.2h-41.8v-5.2c12.2-1,13.4-2.2,13.4-14.4v-37.6c0-12.6-.8-13.2-11.8-14.4v-4.8c8.6-1.4,16.4-3.8,24.8-7.6v20.2h.4Z"/>
  <path class="st23" d="M997.6,256.17v-5.2c12-1,13.4-2.2,13.4-14.6v-38.2c0-11-.4-12-12.2-13.6v-4.8c9.4-1.6,17.6-4,25.2-7.4v64c0,12.4,1.4,13.6,13.4,14.6v5.2h-39.8ZM1007.4,147.17c0-5.4,4.2-9.4,9.2-9.4s8.8,4,8.8,9.4c0,4.8-3.8,9.2-9,9.2-4.8,0-9-4.4-9-9.2Z"/>
  <path class="st23" d="M1094.79,219.57h-42.79l2.6-10.4h42.8l-2.61,10.4Z"/>
  <path class="st23" d="M1205.59,227.17c-1,5.6-5,23.4-6.8,29h-83.2v-5.8c15.6-.8,17-2,17-17.6v-73.4c0-15.4-1.2-16.4-16.8-17.6v-5.6h48v5.6c-15.2,1-17.2,2-17.2,17.6v72.2c0,10,1.2,13.6,4.6,15.6,3.6,2,10.2,2.4,18.2,2.4,10.2,0,16.4-1,20.6-5.6,3.4-3.6,6.8-9.2,9.6-17.8l6,1Z"/>
  <path class="st23" d="M1275.99,258.37c-2.2,0-6.2-1.6-8-3.4-2.6-2.6-3.8-5.2-4.4-8.4-7.8,5-16.4,11.8-22.8,11.8-12.6,0-21.8-10.8-21.8-22.8,0-8.8,4.8-15.2,15.4-18.6,11.2-3.8,24.8-9,28.8-12v-2.6c0-13.6-6.8-21.2-16.4-21.2-4,0-7,1.6-8.8,3.8-2.4,2.6-3.8,6.4-5.6,11.8-.6,2.8-2.6,4-5.2,4-3,0-7.6-3.4-7.6-7.8,0-2.6,2.4-4.8,6-7.4,4.6-3.4,16.4-10.6,27.2-12.8,5.4,0,11.2,1.6,15,5,6,5.4,8,12.8,8,22.2v35c0,8.4,3.2,11.2,6.6,11.2,2.2,0,5-1,6.8-2.2l2,5.4-15.2,9ZM1263.19,211.57l-18.2,8.2c-7.6,3.2-11.8,6.8-11.8,13.6,0,9.4,7.6,14,13.6,14,5.2,0,12.8-4,16.4-7.4v-28.4Z"/>
  <line class="st16" x1="465" y1="335" x2="1272" y2="335"/>
  <g id="Generative_Object">
    <g>
      <g>
        <path class="st26" d="M1268.24,254.5l-1.15,1.15c1.08,12.59-.94,25.39-1.15,37.87-5.83-.61-7.44-8.96-13.2-10.33-6.52-1.55-20.74,3.75-21.8,3.44-.83-.24-6.42-10.7-10.33-13.77-8.74-6.87-21.83-7.72-28.11-20.65,4.04-.79,4.46-3.95,6.88-4.59,15.35-4.04,12.08,3.15,20.08,6.88,2.37,1.11,7.73-.13,9.75,0,14.51.91,20.66,1.68,31.55-10.33.64,0,7.12,9.43,7.46,10.33Z"/>
        <g>
          <g>
            <path class="st21" d="M1131.7,204.02c-.09,10.59,5.05,40.03-5.16,44.75-3.42,1.58-12.04-.38-10.33,4.59,24.51-2.29,52.2,3.58,76.3-1.15,6.29,12.94,19.37,13.78,28.11,20.65,3.91,3.07,9.5,13.53,10.33,13.77,1.06.31,15.28-4.99,21.8-3.44,5.76,1.37,7.36,9.72,13.2,10.33-.14,8.4,1.88,15.58,1.15,25.24l-22.95,13.77c-121.94,5.96-253.34-.12-376.36,0-3.86-9.56-13.49-5.27-22.38-6.88-.37-.07-5.37-4.53-5.74-4.59-4.5-.75-10.41,1.85-16.06,1.15-2.87-.36-6.48-4.51-6.88-4.59-4.05-.76-8.13,2.28-10.33,2.29-16.77.09-34.92,5.51-51.63,3.44-6.99-.87-27.77-11.5-29.83-11.47-1.84.02-5.89,3.91-8.03,4.59-50.59,15.99-47.38,9.3-97.53,5.74-9.16-.65-17.98,3.31-27.54,2.29-16.02-1.7-19.7-17.22-39.01-9.18-2.01.84-16.95,12.96-20.65,13.77-10.68,2.34-35.88,1.61-47.62,1.15-6.57-9.37,20.48-3.93,25.82-5.74,8.86-3,5.95-19.13,20.65-21.8,10.07-1.83,22.85,4.74,24.1,4.59.97-.12,8.51-9.25,16.06-10.33,12.28-1.76,20.63,5.85,21.8,5.74,1.04-.1,3.29-6.32,5.74-8.03,15.73-10.99,30.52,1.74,32.13,1.15,1.23-.46,3.89-17.05,16.06-19.51s17.57,4.33,21.8,4.59c3.94.24,9.28-6.1,13.77-6.88,6.24-1.09,16.4,2.6,17.21,2.29,2.03-.75,3.5-16.86,13.2-21.8,1.27-.65,18.47-8.79,19.51-9.18,1.98-.74,14.05-.86,17.21-2.29-3.36,9.69-11.07,3.73-12.05,10.33,1.64.82,34.97.57,36.72,0,5.61-1.82-9.37-3.82-10.9-10.33,8.63,1.47,18.8,5.19,25.24,11.47,4.9,4.78,8.28,15,12.62,18.93,3.55,3.21,9.98,4.38,14.34,7.46,2.66,1.88,9.57,11.31,10.33,11.47s10.35-3.69,15.49-2.29c2.26.61,8.57,7.43,15.49,9.18,5.25,1.33,14.2-.05,18.93,1.15,7.16,1.81,17.39,11.02,18.93,11.47,3.95,1.16,20.95,1.54,24.1,1.15s5.46,1.25,5.74,1.15c2.57-.92,3.28-9.4,5.16-12.05,10.22-14.41,30.89-18.32,47.62-16.64,2.57.26,12.52,5.22,13.77,4.59,1.02-.51,4.1-15.16,13.77-17.21,16.61-3.51,21.58,11.47,22.95,11.47.85,0,6.14-9.62,11.47-12.62,6.39-3.6,15.1-3.11,18.36-4.59,8.39-3.8,15.18-20.46,22.95-25.24,8.26-5.08,20.69-3.37,22.95-4.59.93-.5,3.44-15.56,6.31-20.08,3.78-5.95,14.64-12.66,21.8-13.2Z"/>
            <path class="st11" d="M867.78,332.53c-127.7.13-255.55-1.13-383.25,0-.1-.72.18-2.04,0-2.29,11.74.46,36.94,1.2,47.62-1.15,3.71-.81,18.64-12.93,20.65-13.77,19.31-8.04,22.99,7.48,39.01,9.18,9.56,1.02,18.38-2.95,27.54-2.29,50.16,3.56,46.94,10.25,97.53-5.74,2.15-.68,6.19-4.56,8.03-4.59,2.06-.03,22.84,10.61,29.83,11.47,16.72,2.07,34.86-3.35,51.63-3.44,2.2-.01,6.28-3.05,10.33-2.29.41.08,4.01,4.23,6.88,4.59,5.66.71,11.56-1.9,16.06-1.15.36.06,5.36,4.52,5.74,4.59,8.88,1.62,18.52-2.68,22.38,6.88Z"/>
          </g>
          <path class="st21" d="M1267.09,319.91v4.59c-4.39,10.7-13.82,7.59-22.95,8.03l22.95-13.77c-.03.38.04.77,0,1.15Z"/>
        </g>
        <path class="st3" d="M790.91,253.36c1.58-6.52,9.41-1.73,11.47-9.75.77-3,.7-42.09,0-45.9-4.11-22.29-36.3-13.2-39.01-4.59-.75,2.38-.68,47.03,0,49.91,1.53,6.5,16.51,8.51,10.9,10.33-1.75.57-35.08.82-36.72,0,.97-6.6,8.69-.64,12.05-10.33,1.46-4.2,2.27-51.5,1.15-55.65-2.03-7.51-13.76-3.83-13.77-6.88l25.82-8.61c-.34,25.13,7.1,4.46,18.36,1.15,47.62-13.99,29.56,51.53,35,71.72,2.04,7.56,10.53,2.29,11.47,8.03l-36.72.57Z"/>
        <path class="st5" d="M790.91,253.36c-.39,1.61-1.05,1.25-2.29,1.15-6.44-6.28-16.62-10-25.24-11.47-.68-2.88-.75-47.53,0-49.91,2.71-8.61,34.9-17.7,39.01,4.59.7,3.81.77,42.9,0,45.9-2.07,8.02-9.9,3.23-11.47,9.75Z"/>
        <g>
          <path class="st14" d="M1267.09,176.48c-12.26-10.84-45.16,1.24-48.19,17.21-6.56-3.99-16.52-13.99-22.38-16.06-15.62-5.54-40.97-.32-45.32,17.79-.94,3.9,3.7,5.96.57,8.61l-6.31-2.29c-.18-10.95-2.1-49.04,0-56.8,2.19-8.09,13.2-3.22,16.06-9.18-6.81.42-41.87-2.44-45.32-.57-4.85,2.62,13.58,3.77,15.49,10.9,2.23,8.34.1,46.35,0,57.95-7.16.53-18.02,7.25-21.8,13.2-2.87,4.52-5.38,19.58-6.31,20.08-2.26,1.22-14.69-.49-22.95,4.59-7.77,4.78-14.56,21.44-22.95,25.24-3.26,1.48-11.97.99-18.36,4.59-5.34,3-10.62,12.62-11.47,12.62-1.36,0-6.34-14.99-22.95-11.47-9.67,2.05-12.75,16.7-13.77,17.21-1.25.63-11.2-4.33-13.77-4.59-16.73-1.68-37.4,2.23-47.62,16.64-1.88,2.65-2.6,11.13-5.16,12.05-.28.1-2.49-1.56-5.74-1.15s-20.14.01-24.1-1.15c-1.54-.45-11.77-9.66-18.93-11.47,35.55-2.13,59.15-48.38,10.9-56.22-7.68-1.25-31.9,3.7-30.41-8.61,1.4-11.53,17.38-4.96,25.82-6.31,18.38-2.94,23.57-20.21,22.38-36.14-.09-1.27-3.81-7.15-3.44-8.03.65-1.53,12.39-1.83,13.77-6.88,5.01-18.33-18.7.51-20.08.57-.82.04-9.98-6.33-14.92-6.88-28.74-3.22-45.66,20.26-32.7,46.47,1.51,3.05,8.25,7.12,8.03,9.18-.5,4.69-31.36,19.79,6.88,26.39-13.67,8.16-29.5,17.82-20.65,36.14-5.15-1.39-14.73,2.47-15.49,2.29s-7.67-9.6-10.33-11.47c-4.37-3.08-10.8-4.25-14.34-7.46-4.34-3.93-7.72-14.15-12.62-18.93,1.24.1,1.91.46,2.29-1.15l36.72-.57c-.95-5.75-9.44-.47-11.47-8.03-5.44-20.18,12.62-85.71-35-71.72-11.26,3.31-18.7,23.98-18.36-1.15l-25.82,8.61c0,3.05,11.74-.62,13.77,6.88,1.12,4.15.31,51.45-1.15,55.65-3.16,1.43-15.23,1.56-17.21,2.29-1.09-8.73-12.41,9-16.06-5.16-4.21-16.32,10.08-64.19-16.64-68.27-10.35-1.58-48.52,12.38-35.57,26.39,18.63,2.76,2.59-21.39,26.39-18.36,9.11,1.16,15.45,16.1,13.2,23.52-2.13,7.03-38.82,8.98-42.46,25.24-6.43,28.78,26.72,35.44,41.88,14.34,2.2,4.31,4.26,10.34,9.75,11.47-9.69,4.95-11.17,21.05-13.2,21.8-.81.3-10.97-3.38-17.21-2.29-4.49.78-9.83,7.13-13.77,6.88-4.23-.26-10.15-6.94-21.8-4.59s-14.83,19.05-16.06,19.51c-1.6.6-16.4-12.13-32.13-1.15-2.45,1.71-4.7,7.93-5.74,8.03-1.17.12-9.52-7.49-21.8-5.74-7.55,1.08-15.09,10.21-16.06,10.33-1.24.15-14.03-6.42-24.1-4.59-14.71,2.67-11.8,18.81-20.65,21.8-5.34,1.81-32.38-3.63-25.82,5.74.18.25-.1,1.58,0,2.29-31.67.28-63.51,2.17-95.24,1.15.68-10.11-2.98-12.71-6.88-20.65,4.04-6.71,7.78-17.46,8.03-25.24.77-24.14-17.7-32.53-37.87-39.01v-12.62c24.93-2.98,58.66-6.29,52.78-41.88-.63-3.82-5.74-8.64-5.74-9.18,0-.72,8.98-6.66,10.33-9.18,8.73-16.34-3.67-27.8-17.21-33.85-3.3-1.48-6.92-2.39-9.18-3.44-.31-.15-.83.14-1.15,0-3.25-11.3-5.5-17.77-14.92-25.24-5.12-4.07-7.04-6.11-13.77-6.88l1.72-29.83h904.18l7.46,8.61v91.22Z"/>
          <g>
            <g>
              <path class="st3" d="M576.91,123.69c1.09-.04,3.36-.41,4.02.57v61.96c21.63-20.9,48.95-21.02,52.78,13.77,1.18,10.71-2.42,37.04,0,44.75,1.84,5.86,13.16,3.34,10.9,8.61l-36.14-1.72c1.48-2.6,5.77-1.34,7.46-2.87,6.33-5.7,5.65-51.83.57-59.09-7.8-11.15-32.99-3.2-35.57,4.59-.76,2.29-.66,45.61,0,48.19,1.7,6.67,14.61,7.85,12.62,10.33h-39.01c-.38-4.69,5.27-2.16,8.61-4.02,2.69-1.5,4.63-5.81,5.16-8.61,1.65-8.63,1.68-90.24,0-98.68-2.48-12.41-13.8-6.64-13.77-10.33,3.98-.7,20.18-7.38,22.38-7.46Z"/>
              <path class="st3" d="M503.47,135.17c11-1.4,21.38,2.72,32.13,3.44,1.37.81,5.99,26.69,1.15,26.39-2.17-.13-6.36-13.8-8.61-16.64-15.13-19.11-48.83-1.97-35.57,24.1,5.83,11.45,37.76,17.03,47.05,32.13,12.65,20.58-1.38,46.53-24.67,49.91-5.45.79-34.74-1.05-37.87-4.59-1.08-1.22-7.38-32.46,0-28.69,2.03.54,6.34,15.96,8.61,18.93,10.65,13.97,38.52,12.77,43.6-5.74,10.45-38.08-57.96-30.75-53.93-72.29,1.26-12.93,15.7-25.39,28.11-26.96Z"/>
              <path class="st3" d="M950.97,171.89l2.29,18.36c4.02-11.06,36.4-29.15,32.7-7.46-2.11,12.34-12.97,3.33-21.23,5.16-1.31.29-12.81,8.52-13.2,9.75-.69,2.19.56,43.68,1.15,45.9,1.95,7.4,13.75,5.6,13.77,8.03l-38.44,1.72c-2.26-5.26,9.06-2.75,10.9-8.61.88-2.79.94-55.75,0-58.52-1.99-5.88-13.77-2.36-13.77-5.74l25.82-8.61Z"/>
              <path class="st3" d="M1020.97,171.89c4.65,1.73-.46,63.37,1.72,71.72s11.22,3.25,13.77,9.18c-3.67.52-41.24,2.11-38.44-1.72,6.51-1.97,10.61-3.43,12.05-10.9.87-4.52.92-46.3,0-50.49-2.18-9.93-13.65-6.37-13.77-9.18l24.67-8.61Z"/>
              <path class="st3" d="M1055.39,208.61c1.78-.79,37.23-.79,39.01,0,2.18.96,2.22,7.91,1.72,8.61-1.22,1.7-40.17,1.78-41.88.57-1.07-.75-1.28-8.1,1.15-9.18Z"/>
              <path class="st3" d="M1012.94,137.46c15.04-3.55,15.85,21.27,0,17.21-7.74-1.98-7.1-15.54,0-17.21Z"/>
            </g>
            <path class="st15" d="M382.42,138.61c-5.27-2.35-8.64-5.49-9.18-5.74,1.25-7.41-2.81-13.12-5.74-19.51,9.42,7.47,11.67,13.94,14.92,25.24Z"/>
          </g>
        </g>
        <g>
          <path class="st21" d="M1218.9,193.69c2.97,1.81,1.85,5.75,8.61,4.59,10.46-3.91,2.31-11.6,9.18-16.06,5.1-3.32,9.31-1.99,14.34,0,4.1,5.88,4.75,12.47,6.88,18.93,1.2,3.62-1.07,2.57,3.44,1.72-2.8,9.64-41.9,8.12-42.46,32.13-7.82,4.45-10.21-8.57-18.36-8.03-.14-1.26.54-3.82-.57-4.59-8.26,6.09-7.36,20.48-19.51,25.24-5.59,2.19-24.68,2.75-29.83,0-8.27-4.42-5-35.98-5.16-45.9l6.31,2.29c3.12-2.65-1.51-4.7-.57-8.61,4.35-18.1,29.7-23.33,45.32-17.79,5.85,2.08,15.82,12.07,22.38,16.06Z"/>
          <path class="st11" d="M1218.9,235c-.19,7.95,3.88,15.27,10.33,19.51-2.03-.13-7.38,1.11-9.75,0-8-3.74-4.73-10.93-20.08-6.88.81-6.7,1.9-13.89,1.15-20.65,8.15-.53,10.53,12.48,18.36,8.03Z"/>
        </g>
        <g>
          <path class="st3" d="M1145.46,201.72c.16,9.92-3.11,41.48,5.16,45.9,5.15,2.75,24.24,2.19,29.83,0,12.15-4.76,11.24-19.15,19.51-25.24,1.12.77.43,3.33.57,4.59.75,6.77-.33,13.95-1.15,20.65-2.42.64-2.84,3.8-6.88,4.59-24.1,4.73-51.79-1.14-76.3,1.15-1.71-4.97,6.91-3.01,10.33-4.59,10.22-4.72,5.07-34.16,5.16-44.75.1-11.59,2.23-49.61,0-57.95-1.91-7.13-20.34-8.28-15.49-10.9,3.45-1.87,38.51.99,45.32.57-2.87,5.96-13.87,1.09-16.06,9.18-2.1,7.76-.18,45.85,0,56.8Z"/>
          <g>
            <path class="st3" d="M1267.09,176.48c14.58,12.89-.5,68.05,13.2,69.99,3.35.48,9.98-6.3,10.9-2.87,1.68,6.25-18.11,12.87-22.95,10.9-.34-.9-6.82-10.32-7.46-10.33-10.89,12-17.05,11.24-31.55,10.33-6.45-4.23-10.51-11.55-10.33-19.51.56-24.01,39.66-22.49,42.46-32.13,2.26-7.8-2.85-17.7-10.33-20.65-5.03-1.99-9.24-3.32-14.34,0-6.87,4.46,1.28,12.16-9.18,16.06-6.76,1.16-5.64-2.78-8.61-4.59,3.03-15.97,35.93-28.05,48.19-17.21Z"/>
            <path class="st10" d="M1260.78,210.9c-.17,10.57,5.62,31.4-9.18,34.42-14.7,3-22.83-8.03-15.49-21.23,4.34-7.8,17.88-8.07,24.67-13.2Z"/>
            <path class="st10" d="M1261.36,202.87c-4.51.85-2.25,1.9-3.44-1.72-2.14-6.46-2.78-13.06-6.88-18.93,7.48,2.95,12.59,12.85,10.33,20.65Z"/>
          </g>
        </g>
        <g>
          <path class="st3" d="M875.82,300.4c-4.73-1.2-13.68.18-18.93-1.15-6.92-1.75-13.23-8.57-15.49-9.18-8.85-18.32,6.98-27.98,20.65-36.14-38.24-6.6-7.39-21.7-6.88-26.39.22-2.06-6.52-6.13-8.03-9.18-12.96-26.21,3.96-49.69,32.7-46.47,4.94.55,14.1,6.92,14.92,6.88,1.39-.07,25.09-18.9,20.08-.57-1.38,5.05-13.12,5.35-13.77,6.88-.37.88,3.35,6.76,3.44,8.03,1.19,15.94-4,33.21-22.38,36.14-8.44,1.35-24.42-5.22-25.82,6.31-1.5,12.31,22.73,7.36,30.41,8.61,48.25,7.85,24.65,54.09-10.9,56.22Z"/>
          <path class="st26" d="M868.36,255.65c7.7-1.53,32.73,2.94,35,12.05,7.88,31.66-57.34,32.18-52.78,4.59.77-4.64,13.45-15.77,17.79-16.64Z"/>
          <path class="st5" d="M869.51,177.62c32.81-4.74,27.26,61.26-4.59,43.6-13.1-7.26-12.03-41.2,4.59-43.6Z"/>
        </g>
        <g>
          <path class="st3" d="M732.39,245.32c-1.04.39-18.24,8.53-19.51,9.18-5.5-1.14-7.55-7.16-9.75-11.47-15.16,21.1-48.31,14.43-41.88-14.34,3.63-16.26,40.32-18.22,42.46-25.24,2.25-7.42-4.08-22.36-13.2-23.52-23.8-3.03-7.76,21.12-26.39,18.36-12.95-14.01,25.22-27.97,35.57-26.39,26.72,4.09,12.43,51.96,16.64,68.27,3.65,14.17,14.98-3.57,16.06,5.16Z"/>
          <path class="st5" d="M700.83,212.05c.96.09,2.27-.44,2.87.57-.49,11.58,4.21,30.21-12.05,32.7-18.61,2.85-22.59-17.44-9.18-26.39,1.34-.9,17.38-6.98,18.36-6.88Z"/>
        </g>
      </g>
      <g>
        <path class="st9" d="M232.1,233.85c-.62,2.54-.84,2.68,0,5.16,7.05,20.83,15.46,31.83,19.51,55.65.31,1.84,1.02,2.55,1.15,3.44,5.33,37.92,2.54,114.65-56.8,92.94-6.37-2.33-17.23-13.55-18.36-13.77-5.43-1.06-16.46,9.69-30.98,2.29-9.59-4.88-13.5-25.78-14.92-26.39-4.92-2.13-19.27,6.71-30.41-7.46-8.02-10.19-3.22-18.84-5.74-25.24-.6-1.53-26.08-9.39-24.1-20.08.31.74,12.42,8.98,13.2,9.18,7.54,1.96,17.47-1.46,18.36-1.15,1.86.65-.85,3.01-.57,3.44-7.11,14.41,6.39,41.42,23.52,34.42,3.8-1.55,11.96-22.07,14.34-17.79-.68,16.07.32,35.56,15.49,45.32,8.21.07,9.88-31.68,12.62-37.87,1.37-.69,10.28,21.09,12.05,23.52,15.3,21.12,41.34,22.36,55.08-1.15,16.14-27.62,4.13-78.39-6.88-106.71-.73-1.87-2.4-5.66-4.59-6.31,1.85-4.15,1.47-11.6,8.03-11.47Z"/>
        <path class="st21" d="M232.1,155.82c.74,11.14.77,21.66-1.15,32.7,5.44-1.75,6.98-7.16,9.18-12.05.24,2.58,3.09,7.04,5.74,5.74-5.77,6.89-34.09,26.57-23.52,35.57,10.06,8.57,22.67-5.41,28.11-12.62,5.54.74,9.97-4.32,13.77-5.74,3.18-1.19,9.22-2.78,12.62-3.44v9.18c-5.95,1.88-10.66,5.21-16.06,8.03-4.2,2.19-9.89,2.98-13.2,6.88l37.29,16.06c-5,1.96-3.58,1.83-2.29,6.88-10.1-4.53-21.12-7.73-31.55-11.47,2.93,5.59,7.68,7.68,10.9,13.77-4.95-.05-3.28,1.22-3.44,5.74-5.41-4.54-10.97-8.14-17.21-11.47-2.22-1.18-6.61-5.69-9.18-5.74-6.56-.12-6.18,7.32-8.03,11.47-1.21,2.72-3.93,7.77-4.59,10.33,1.51-1.52-.99-6.77-4.02-4.59s1.86,6.75,4.02,4.59c-.89,3.45-1.65,8.88-2.29,12.62-1.16,6.81-.81,13.82-1.72,20.65-2.51-5.72-2.67-14.4-2.87-20.65-.16-4.79-.58-23.43,2.29-26.39.46,1.37-.7,3.28.57,4.59,8.58,8.83,7.64-13.04-.57-4.59-.41-1.23.7-3.45-.57-4.59-2.28-1.56-15.69,12.41-17.79,14.92.35-4.36-.64-6.86-5.74-5.74,3.53-5.17,6.83-10.16,10.9-14.92-9.53,2.78-18.63,7.35-26.96,12.62.91-4.22-2.16-3.87-5.74-3.44,4.01-4.42,7.49-8.26,12.62-11.47,7.46-4.66,16.19-7.15,24.1-10.9-3.67-3.15-8.52-4.17-12.62-6.31-2.64-1.38-5.23-3.35-8.03-4.59l-3.44-7.46,4.59-4.02c.77.18,9.04,2.17,9.18,1.72-2.44-1.63-4.88-4.64-6.88-6.31l8.03-5.74c1.47.89,8.14,5.99,9.18,4.02-2.4-6.94-6.44-13.35-9.18-20.08,6.35,2.53,3.34-6.8,2.29-11.47,3.71,4.35,6.75,8.92,9.75,13.77.92-.31-1.53-9.88-1.72-11.47.85.82,5.85,3.35,6.88,1.72l-1.15-10.9,9.18,23.52c.41-11.03-.04-21.74-1.15-32.7,7.41,5.52,7.67,1.01,8.03-5.74,2.72,6.2,3,12.86,3.44,19.51Z"/>
        <path class="st22" d="M241.28,239.59c-7.79.49-.13,3.73,1.15,6.31,10.32,20.82,17.88,47.84,33.28,65.4,22.22,25.35,52.05,27.74,41.31-14.92l-12.62-18.93c3.9,1.45,7.74,2.68,11.47,4.59l44.18,50.49c16.48-12.23-1.58-35.02-9.75-47.05-1.33-1.96-4.07-5.53-4.02-8.03,7.91,3.85,13.7,9.03,20.08,14.92-2.3,1.48-3.58.23-2.87,3.44.6,2.69,12.69,16.01,14.34,22.38,5.07,19.49-11.74,41.87-31.55,37.29-10.36-2.4-7.72-30.57-14.92-39.01.19,10.88-2.48,28.53-14.92,32.13-24.98,7.22-43.49-27.93-57.95-42.46-1.4-2.55-3.4-5.5-4.59-8.03-.56-1.18,1.3-4.02-2.29-3.44-4.05-23.82-12.46-34.82-19.51-55.65-.84-2.48-.62-2.62,0-5.16,2.57.05,6.96,4.55,9.18,5.74Z"/>
        <path class="st13" d="M182.76,36.49l.57,4.59c23.71-3.47,31.99,11.47,29.83,33.28,25.69-33.65,42.35-2.42,40.73,27.54-.07,1.22-.88,4.81-1.15,6.88l-5.74,1.15c4-27.7-12.54-58.04-20.08-12.62-8.05-4.08-3.89-7.13-7.46-12.05-1.91-2.63-7.3-5.6-8.03-6.88-5.04-8.84-4.48-27.79-20.08-30.41-25.59-4.29.77,19.93-2.29,21.8-4.28.14-15.47-15.26-16.64-5.16-.28,2.46,15.09,26.83,10.9,32.7-.08.12-2.43,1.07-2.87.57-5.56-21.64-57.42-44.09-52.78-7.46h-9.18c-.72-20.14,10.01-25.05,25.82-32.13,1.31-.59,5.57.59,6.88,0,8.2-3.66,11.79-17.88,31.55-21.8Z"/>
        <path class="st9" d="M373.24,298.11c2.41,2.87,4.96,7.04,6.88,10.33.54.92,1.7,3.37,2.29,4.59,3.91,7.94,7.57,10.54,6.88,20.65-1.13,16.72-26.16,28.33-40.73,27.54-5.25-.28-18.47-6.94-19.51-6.88-1.95.11-11.2,7.78-20.65,6.88-19.57-1.86-41.25-39.26-49.91-55.08,14.46,14.52,32.97,49.67,57.95,42.46,12.44-3.59,15.11-21.25,14.92-32.13,7.2,8.44,4.55,36.62,14.92,39.01,19.82,4.58,36.62-17.8,31.55-37.29-1.66-6.37-13.74-19.69-14.34-22.38-.72-3.21.57-1.96,2.87-3.44,2,1.85,4,2.29,6.88,5.74Z"/>
        <path class="st30" d="M127.68,90.42c.64,5.08,20.69,46.08,23.52,45.9,1.22-.08.54-8.28,12.05-3.44,1.07.45,8.19,4.95,9.18,5.74,5.86,4.66,15.54,17.44,19.51,24.1.17.29-.16,1.34,1.15,1.15v1.15c-.93-.12-3.79,2.36-4.02,2.29-1.46-.44-16.25-23.46-19.51-21.8-1.2,9.55,20.78,29.15,2.87,25.24-13.03-5.45-27.19-8.88-41.31-9.18,2.61-7.04,20.94,2.63,21.8-1.72-4.22-4.76-9.24-8.8-13.77-13.2l-2.29-5.74c2.22,1.95,4.59,3.87,6.88,5.74s4.42,5.37,7.46,6.88c1.56-3.19-4.11-5.42-5.16-6.88-9.72-13.45-26.95-39.87-27.54-56.22h9.18Z"/>
        <path class="st31" d="M276.85,155.82c-6.9,12.97-13.93,30.44-21.8,42.46-1.35,2.06-3.19,5.03-4.59,6.88-5.44,7.21-18.06,21.19-28.11,12.62-10.57-9,17.75-28.68,23.52-35.57.38-.46,3.41-3.03,1.15-3.44,8.73-8.21,13.31-17.67,19.51-27.54l10.33,4.59Z"/>
        <path class="st6" d="M321.6,37.64c-1.91,17.6-6.72,36.07-12.62,52.78-8.15,23.06-20.71,43.97-32.13,65.4l-10.33-4.59c12.82-20.41,22.51-41.08,32.13-63.11,3.48-7.97,20.81-44.76,20.65-50.49.74-.08,1.7.17,2.29,0Z"/>
        <path class="st30" d="M253.9,61.73c3.23,10.25,4.84,25.37,3.44,36.14-.32,2.47-.12,4.2-3.44,4.02,1.62-29.96-15.05-61.19-40.73-27.54,2.16-21.8-6.12-36.75-29.83-33.28l-.57-4.59c13.43-2.66,26.03-.98,37.29,6.88,3.12,2.18,7.42,10.09,8.03,10.33,9.21,3.62,16.18-5.94,25.82,8.03Z"/>
        <path class="st30" d="M125.39,247.62c-7.06,3.27-33.46,26.23-35.57,33.85-1.08,3.89-.74,13.89,4.02,15.49,5.46,1.84,18.61-5.39,16.64,1.15-17.72,8.31-25.91,8.6-39.01-8.03,3.98-21.15,36.11-38.14,53.93-47.05v4.59Z"/>
        <path class="st22" d="M110.47,298.11c2.76-1.29,5.27-2.82,8.03-4.02-6.1,46.02,8.42,25.53,26.39,8.61,3.24.99-3.5,10.52-4.59,12.05-2.31,3.24-13.49,15.63-16.64,16.64-13.38,4.27-15.91-11.17-21.23-19.51-.28-.43,2.43-2.8.57-3.44-.89-.31-10.82,3.11-18.36,1.15-.78-.2-12.88-8.44-13.2-9.18-1.93-4.57-.79-6.13,0-10.33,13.1,16.63,21.29,16.35,39.01,8.03Z"/>
        <path class="st20" d="M240.13,176.48c-2.2,4.88-3.74,10.3-9.18,12.05,1.91-11.04,1.89-21.56,1.15-32.7l2.87,4.59c8.05-15.76,15.53-33.81,17.79-51.63.26-2.08,1.08-5.67,1.15-6.88,3.32.18,3.12-1.54,3.44-4.02,1.4-10.78-.22-25.9-3.44-36.14,13.84,20.07-3.47,91.9-13.77,114.74Z"/>
        <path class="st22" d="M181.61,229.26c-5.14,3.21-8.61,7.05-12.62,11.47-.05.06-1.35-.15-1.15,1.15-1.66.66-4.43,3.3-5.74,4.59-10.7-4.23-26.29-3.68-36.72,1.15v-4.59c4.73-2.37,9.84-7.91,14.92-9.18s21.85.06,28.11-1.15c1.78-.34,12.17-8.41,13.2-3.44Z"/>
        <path class="st21" d="M331.93,35.34c-8.97,3.66-9.18,18.9,0,18.36v6.88c-12.45-2.19-14.44,21.6-1.15,16.06-.21,1.24.44,2.56,1.15,3.44-6.64-1.17-13.7,2.85-13.77,10.33-2.61-5.98-5.48-3.97-9.18,0,5.91-16.71,10.71-35.18,12.62-52.78,3.08-.87,7.16-5.5,9.18-8.03.09,2.24-.37,3.73,1.15,5.74Z"/>
        <path class="st21" d="M315.87,31.9c1.35.85,3.39,3.95,3.44,5.74.15,5.73-17.17,42.51-20.65,50.49l-4.59-3.44c.18-.23,1.18-5.36,1.15-5.74,4.3,2.18,9.76-7.67,10.33-9.75,1.02-3.76-2.31-2.69-2.29-2.87.44-4.28,4.53-13.19-2.29-17.21l2.29-3.44c10.67,7.48,15.14-6.6,8.03-13.77,1.15.36,3.95-.4,4.59,0Z"/>
        <path class="st1" d="M300.95,49.11c6.82,4.02,2.73,12.93,2.29,17.21-18.69,5.31-19.5-27.35-2.29-17.21Z"/>
        <path class="st1" d="M331.93,80.09c11.74,14.68-13.92,25.91-13.77,10.33.07-7.48,7.13-11.5,13.77-10.33Z"/>
        <path class="st1" d="M330.78,29.6c-2.02,2.53-6.1,7.16-9.18,8.03-.59.17-1.56-.08-2.29,0-.05-1.78-2.09-4.89-3.44-5.74-1.39-8.26,1.79-11.98,8.61-16.06,7.78,1.68,6.08,7.91,6.31,13.77Z"/>
        <path class="st1" d="M295.21,78.94c.03.38-.96,5.51-1.15,5.74-5.63,7.01-19.7-3.99-16.06-13.2,2.93-7.41,16.51-.81,17.21,7.46Z"/>
        <path class="st1" d="M331.93,53.7c-9.18.54-8.97-14.7,0-18.36,14.62-5.96,10.07,17.77,0,18.36Z"/>
        <path class="st1" d="M311.28,31.9c7.1,7.17,2.64,21.25-8.03,13.77-7.68-5.38-9.32-19.17,8.03-13.77Z"/>
        <path class="st1" d="M331.93,60.59c8.04,1.42,5.01,13.5-1.15,16.06-13.29,5.53-11.3-18.26,1.15-16.06Z"/>
        <path class="st21" d="M253.9,298.11h-1.15c-.13-.89-.84-1.6-1.15-3.44,3.6-.58,1.74,2.26,2.29,3.44Z"/>
        <path class="st21" d="M245.87,182.21c-.25-1.99-.22-2.16,1.15-3.44,2.26.41-.77,2.99-1.15,3.44Z"/>
        <path class="st21" d="M287.18,237.29c-.7-.19-1.29,0-1.15-1.15.86.11,1.27.14,1.15,1.15Z"/>
        <path class="st21" d="M142.6,231.55v-1.15c2.55.26.12.99,0,1.15Z"/>
        <path class="st21" d="M228.66,132.87c-1,.12-1.04-.29-1.15-1.15,1.03-.13,1.01.31,1.15,1.15Z"/>
        <path class="st21" d="M1267.09,255.65l1.15-1.15c.25.67-.36,1.32-1.15,1.15Z"/>
        <path class="st21" d="M330.78,200.57l-1.15-1.15v-1.15c1.45.69,1.38.66,1.15,2.29Z"/>
        <path class="st21" d="M195.38,253.36c.64-.81,1.1-1.09,1.15-1.15-.07.88-.17,1.27-1.15,1.15Z"/>
        <path class="st21" d="M196.53,168.44c-1.35.24-2.16-2.21-2.29-2.29,3.04-.48,1.82.98,2.29,2.29Z"/>
        <path class="st21" d="M296.36,243.03l-1.15-1.15c1.31.79,1.08,1.1,1.15,1.15Z"/>
        <path class="st21" d="M193.09,163.85c-1.31.19-.97-.85-1.15-1.15l1.15,1.15Z"/>
        <path class="st21" d="M186.2,252.21c.8-1.36,1.11-1.08,1.15-1.15-.2.69,0,1.29-1.15,1.15Z"/>
        <path class="st21" d="M266.53,251.06c-1.14.15-.95-.45-1.15-1.15,1.3-.21,1.09,1.09,1.15,1.15Z"/>
        <path class="st21" d="M167.85,241.88c-.21-1.3,1.09-1.09,1.15-1.15-.08,0,.43.52-1.15,1.15Z"/>
        <path class="st21" d="M227.51,129.43c-1.04.13-1-.32-1.15-1.15,1.04-.13,1.01.31,1.15,1.15Z"/>
        <path class="st21" d="M206.86,160.41c-.24-.23-.41,0-1.15-1.15,1-.12,1.05.29,1.15,1.15Z"/>
        <path class="st21" d="M292.92,240.73c-.31-.18-1.33.16-1.15-1.15.24.16,1.34-.17,1.15,1.15Z"/>
        <path class="st21" d="M198.83,158.12c-.02-.08-.83-.85-1.15-1.15.16.18.59.49,1.15,1.15Z"/>
        <path class="st21" d="M197.68,156.97c-.08-.08-1.36.16-1.15-1.15.33.36.73.68,1.15,1.15Z"/>
        <path class="st22" d="M260.79,213.19c4.96,4.9,19.08,4.03,23.52,6.88,3.86,2.48-3.01,2.74,7.46,8.03,1.63.82,4.68,1.34,6.88,2.29,4.29,1.85,8.02,4.48,12.62,5.74-.14,1.13.44.96,1.15,1.15,9.34,2.51,20.01,6.33,29.83,9.18l32.7,17.21c8.28,6.21,9.92,16.06,15.49,24.1-.25,7.79-3.99,18.53-8.03,25.24-.6-1.22-1.76-3.67-2.29-4.59,3.43.5,2.25-3.08,2.29-5.16.91-40.54-27.01-47.82-59.67-55.65-7.89-1.89-17.54-7.55-24.1-3.44-.34-.01-.83-.08-1.15,0,.2-1.32-.97-1.02-1.15-1.15-.06-.05.16-.36-1.15-1.15-.66-.4-1.62-.76-2.29-1.15.19-1.32-.91-.99-1.15-1.15-1.93-1.28-2.2-1.64-4.59-2.29.12-1-.29-1.04-1.15-1.15-.28-.04-.91-.09-1.15,0l-37.29-16.06c3.31-3.9,9-4.69,13.2-6.88Z"/>
        <path class="st9" d="M346.85,247.62c1.3.42,4,.59,5.74,1.15,20.17,6.49,38.64,14.87,37.87,39.01-5.57-8.04-7.21-17.89-15.49-24.1l-32.7-17.21c1.43.41,3.18.69,4.59,1.15Z"/>
        <path class="st11" d="M352.58,236.14v12.62c-1.74-.56-4.44-.73-5.74-1.15l.57-8.03c-6.33,2.02-6.94,3-13.2-.57,5.74.95,7.55-2.78,8.03-2.87,2.98-.55,7.13.38,10.33,0Z"/>
        <path class="st22" d="M102.44,311.87c5.32,8.34,7.85,23.77,21.23,19.51,3.15-1,14.33-13.4,16.64-16.64,1.09-1.53,7.83-11.06,4.59-12.05,2.29-2.16,5.14-8.12,9.18-7.46-6.68,18.46-9.12,40.83,1.72,57.95,3.81.16,4.7-30.92,6.31-36.14.8-2.59,5.78-8,6.88-10.9-4.34,49.16,70.24,81.93,66.55,13.2-.82-15.31-8.34-39.12-18.36-51.06.64-3.75,1.4-9.17,2.29-12.62.66-2.56,3.37-7.6,4.59-10.33,2.19.65,3.86,4.44,4.59,6.31,11.02,28.32,23.02,79.1,6.88,106.71-13.74,23.51-39.77,22.27-55.08,1.15-1.76-2.43-10.68-24.21-12.05-23.52-2.74,6.19-4.41,37.94-12.62,37.87-15.17-9.76-16.17-29.25-15.49-45.32-2.38-4.28-10.54,16.23-14.34,17.79-17.13,7-30.63-20.01-23.52-34.42Z"/>
        <path class="st30" d="M190.79,246.47c-2.38.52-2.88,2.58-3.44,4.59-.04.07-.35-.21-1.15,1.15-7.36,12.53-11.89,23.59-14.92,37.87-.79,3.7-2.35,10.21-1.15,13.77-.49,1.23-1.1,2.17-1.15,2.29-1.1,2.9-6.09,8.31-6.88,10.9-1.61,5.23-2.5,36.31-6.31,36.14-10.84-17.12-8.4-39.49-1.72-57.95-4.04-.67-6.89,5.3-9.18,7.46-17.97,16.92-32.49,37.42-26.39-8.61-2.76,1.2-5.28,2.72-8.03,4.02,1.97-6.54-11.17.69-16.64-1.15-4.76-1.6-5.09-11.6-4.02-15.49,2.11-7.62,28.51-30.58,35.57-33.85,10.43-4.83,26.02-5.38,36.72-1.15-1.33,1.31-4.44,7.13-5.74,9.18s-5.03,4.07-4.02,6.88c3.3-.41,3.51-4.37,5.16-5.74,5.35-4.44,11.32-8.9,17.21-12.62,8.34-5.27,17.43-9.85,26.96-12.62-4.07,4.75-7.37,9.75-10.9,14.92Z"/>
        <path class="st17" d="M217.19,268.27c10.02,11.94,17.54,35.75,18.36,51.06,3.69,68.73-70.89,35.96-66.55-13.2.05-.12.66-1.07,1.15-2.29,1.62-4.05,2.2-9.94,3.44-12.62,3.07-6.65,7.87-13.14,11.47-19.51.54,3.49,7.09.2,9.75,1.15,5.28,1.88,5.77,14.57,6.88,19.51l10.9-24.1c.2,6.25.36,14.93,2.87,20.65.91-6.84.56-13.84,1.72-20.65Z"/>
        <path class="st17" d="M241.28,239.59c6.24,3.34,11.8,6.94,17.21,11.47,3.99,3.34,9.05,8.68,12.62,12.62,2.16,2.39,3.87,5.35,6.88,6.88-2.23,9.21-23.22-29.36-21.8-8.61.8,11.66,28.69,52.05,40.73,53.36,17.32,1.88,7.59-34.1-.57-40.73,2.8-3.1,7.58,2.7,8.03,2.87l12.62,18.93c10.74,42.66-19.08,40.26-41.31,14.92-15.4-17.56-22.96-44.58-33.28-65.4-1.28-2.58-8.94-5.82-1.15-6.31Z"/>
        <path class="st20" d="M214.89,241.88c-2.88,2.96-2.45,21.6-2.29,26.39l-10.9,24.1c-1.11-4.94-1.61-17.63-6.88-19.51-2.66-.95-9.21,2.35-9.75-1.15,2.89-5.11,6.86-13.97,10.33-18.36.98.12,1.08-.27,1.15-1.15,2.1-2.51,15.5-16.47,17.79-14.92,1.27,1.14.16,3.36.57,4.59Z"/>
        <path class="st17" d="M188.5,119.1c1.96,4.93,7.85,11.99,10.33,17.79,2.01,4.71,5.26,19.87,6.88,22.38.74,1.14.9.92,1.15,1.15.19,1.59,2.64,11.17,1.72,11.47-3.01-4.85-6.04-9.42-9.75-13.77-.56-.66-.99-.97-1.15-1.15-.42-.47-.82-.79-1.15-1.15-6.97-7.53-13.28-13.68-21.8-19.51,12.03.25-.21-21.46,13.77-17.21Z"/>
        <path class="st17" d="M211.45,103.04c1.03,1.27.81,2.42,1.15,3.44,4.38,13.28,6.61,21.43,8.03,35.57,1.1,10.96,1.56,21.67,1.15,32.7l-9.18-23.52c-1.66-5.87-5.85-14.56-9.18-19.51,8.86-3.2,4.31-21.07,5.74-28.11.2-.98,2.24-.45,2.29-.57Z"/>
        <path class="st17" d="M252.76,108.78c-2.26,17.82-9.73,35.88-17.79,51.63l-2.87-4.59c-.44-6.64-.72-13.3-3.44-19.51.02-.38.01-.77,0-1.15,7.81-6.29-2.55-20.5,10.33-18.93l1.72,10.9c4.3-4.38,5.48-11.43,6.31-17.21l5.74-1.15Z"/>
        <path class="st20" d="M188.5,191.39c2,1.67,4.45,4.68,6.88,6.31-.14.45-8.41-1.55-9.18-1.72-16.63-3.8-33.48-10.74-50.49-12.62-2.24-.25-4.63.17-6.88,0,2.2-4.81,4-.78,7.46-2.29.3-.13,1.79-4.08,3.44-4.59,4.14-1.27,10.35,2.22,14.92,1.15l-.57-4.59c10.84,4.75,25.38,10.84,34.42,18.36Z"/>
        <path class="st20" d="M282.59,243.03c.46.21,1.37.72,2.29,1.15,7.41,3.4,14.63,8.73,21.8,12.62-12.22-1.26-33.8-9.08-29.83,10.33-.81-2.55-3.25-4.19-3.44-4.59-2.36-4.76-2.52-7.49-6.88-11.47-.06-.05.15-1.36-1.15-1.15-.11-.39.14-.9,0-1.15-.65-1.12-2.08-3.43-3.44-3.44-3.22-6.09-7.97-8.18-10.9-13.77,10.44,3.74,21.45,6.95,31.55,11.47Z"/>
        <path class="st22" d="M193.09,165c1.53.19,1.08,1.1,1.15,1.15.14.09.94,2.53,2.29,2.29.12.34-.13.82,0,1.15,2.74,6.73,6.78,13.14,9.18,20.08-1.03,1.97-7.71-3.13-9.18-4.02-7.9-4.78-15.44-11.29-24.1-14.92,17.91,3.9-4.07-15.69-2.87-25.24,3.25-1.66,18.05,21.36,19.51,21.8.22.07,3.09-2.41,4.02-2.29Z"/>
        <path class="st30" d="M322.75,247.62c15.14,10.92,52.87,23.7,53.93,45.32.19,3.87.06,3.74-3.44,5.16-2.89-3.45-4.88-3.89-6.88-5.74-6.38-5.88-12.17-11.07-20.08-14.92-.05,2.5,2.69,6.08,4.02,8.03-8.45-2.14,1.07,11.1,1.15,13.2.45,11.64-7.24-.29-9.75-1.72-1.22-.69-2.27,1.87-3.44,1.15-8.15-5.04-11.85-10.69-22.38-16.06-3.73-1.91-7.57-3.14-11.47-4.59-.45-.17-5.23-5.97-8.03-2.87,8.17,6.63,17.89,42.61.57,40.73-12.04-1.31-39.94-41.7-40.73-53.36-1.42-20.75,19.58,17.82,21.8,8.61.4-1.67-.74-2.17-1.15-3.44-3.96-19.41,17.61-11.59,29.83-10.33,2.62,1.43,6.21,3.91,9.18,4.02-2.35-2.01-16.02-16.59-17.21-16.64,6.55-4.11,16.21,1.55,24.1,3.44Z"/>
        <path class="st17" d="M350.29,285.48c8.18,12.03,26.23,34.81,9.75,47.05l-44.18-50.49c10.52,5.37,14.23,11.02,22.38,16.06,1.17.73,2.23-1.84,3.44-1.15,2.51,1.43,10.2,13.36,9.75,1.72-.08-2.09-9.6-15.33-1.15-13.2Z"/>
        <path class="st13" d="M247.02,109.93c-.83,5.78-2.01,12.83-6.31,17.21l-1.72-10.9c-12.88-1.56-2.52,12.65-10.33,18.93-.03-.75.12-1.57,0-2.29-.14-.84-.11-1.27-1.15-1.15-.1-.74.12-1.57,0-2.29-.14-.83-.11-1.27-1.15-1.15-1.4-8.07-5.58-15.3-10.33-21.8-1.61-2.21-2.36-5.16-5.16-6.88-1.88,1.35.92,2.63.57,3.44-.05.12-2.1-.41-2.29.57-1.43,7.04,3.12,24.91-5.74,28.11-3.28-4.87-9.14-11.18-13.77-14.92-1.86-1.5-2.98-4.64-6.31-4.59l5.16,5.74c-.01.35-.1.9,0,1.15-13.98-4.25-1.74,17.46-13.77,17.21-.74-.02-1.64.15-2.29,0-1.31-.3-6.79-6.12-9.18-3.44-11.51-4.83-10.83,3.37-12.05,3.44-2.83.18-22.88-40.82-23.52-45.9-4.64-36.63,47.22-14.18,52.78,7.46.44.5,2.78-.45,2.87-.57,4.19-5.87-11.18-30.25-10.9-32.7,1.17-10.09,12.36,5.3,16.64,5.16,3.07-1.87-23.3-26.09,2.29-21.8,15.6,2.61,15.04,21.57,20.08,30.41.73,1.28,6.12,4.25,8.03,6.88,3.57,4.92-.59,7.97,7.46,12.05,7.54-45.42,24.08-15.08,20.08,12.62Z"/>
        <path class="st17" d="M380.12,308.43c-1.92-3.29-4.48-7.45-6.88-10.33,3.5-1.43,3.63-1.3,3.44-5.16-1.06-21.63-38.78-34.41-53.93-45.32,32.66,7.83,60.58,15.11,59.67,55.65-.05,2.09,1.14,5.67-2.29,5.16Z"/>
        <path class="st21" d="M172.43,136.32v2.29c-.99-.79-8.11-5.29-9.18-5.74,2.39-2.68,7.87,3.14,9.18,3.44Z"/>
        <path class="st11" d="M323.9,233.85c-.91-.03-3.7,1.83-4.59-1.15,1.47.26,4.27-.9,4.59,1.15Z"/>
        <path class="st21" d="M297.51,244.18c.32-.08.8-.01,1.15,0,1.2.05,14.87,14.63,17.21,16.64-2.97-.11-6.56-2.59-9.18-4.02-7.17-3.89-14.4-9.22-21.8-12.62l12.05,3.44c1.1-.42.38-3.39.57-3.44Z"/>
        <path class="st11" d="M312.42,237.29c-.71-.19-1.29-.01-1.15-1.15.71.19,1.29,0,1.15,1.15Z"/>
        <g>
          <path class="st17" d="M350.29,178.77c.19,3.46,8,2.22,12.62,3.44,8.43,2.23,20.25,6.89,25.24,14.34-.91,1.65-27.33-11.34-32.13-5.74,9.8,4.02,38.25,12.97,20.08,24.67-15.2,9.78-57.04,6.86-72.29-3.44,9.35-3.11,18.65-7.61,28.69-6.88l-5.16-2.87c1.1-1.49,3.07.86,3.44-1.72.24-1.64.3-1.61-1.15-2.29-11.28-5.37-40.34-4.71-52.78-2.29-3.41.66-9.44,2.26-12.62,3.44v-1.15c9.69-1.76,25.66-11.87,39.01-14.92l-5.16,6.88c14.36.58,24-1.59,37.29-5.74,5.49-1.71,9.85-3.92,14.92-5.74Z"/>
          <path class="st25" d="M368.65,131.73c-11.68,5.56-20.05,18.61-29.83,25.24-8.11,5.5-8.13,2.02-8.61,2.29-3.55,2.02-3.44,6.49-6.88,8.03-1.01.45-20.8,3.91-21.8,3.44-2.34-6.65,5.61-6.29,7.46-11.47-1.95-3.08-6.56,1.58-9.18,2.29l-21.8,8.61c8.81-7.26,14.23-17.6,21.8-25.82,11.08-12.03,33.37-36.77,53.36-28.69,14.56,5.89-28.51,18.24-19.51,24.1,7.06-5.2,23.85-13.38,32.13-11.47,1,.23,2.67,3.34,2.87,3.44Z"/>
          <path class="st13" d="M370.94,156.97c1.97.25,22.07,3.01,20.65,6.31-14.9,2.27-27.88,10.66-41.31,15.49-5.06,1.82-9.43,4.03-14.92,5.74-.25-1.28.39-3.78,0-4.59-1.06-2.2-2.34-.57-3.44-1.15-12.25-6.46-35.57-2.98-48.77,0,3.97-4.85,11.55-11.49,16.64-14.92,2.26-1.52,6.71-2.92,9.18-4.59-1.85,5.19-9.8,4.82-7.46,11.47,1,.47,20.79-2.99,21.8-3.44,3.45-1.55,3.33-6.02,6.88-8.03.48-.27.5,3.21,8.61-2.29,11.43-1.22,20.55-1.48,32.13,0Z"/>
          <path class="st13" d="M353.73,106.48c6.73.77,8.65,2.82,13.77,6.88,2.92,6.39,6.99,12.1,5.74,19.51-.73-.34-2.49-.05-4.59-1.15-.2-.1-1.87-3.21-2.87-3.44-8.28-1.9-25.07,6.28-32.13,11.47-9.01-5.86,34.06-18.21,19.51-24.1-19.99-8.08-42.27,16.65-53.36,28.69,10.75-19.16,29.72-40.65,53.93-37.87Z"/>
          <path class="st30" d="M331.93,179.92h3.44c.39.81-.25,3.31,0,4.59-13.29,4.15-22.93,6.32-37.29,5.74l5.16-6.88c10.01-2.29,18.33-3.44,28.69-3.44Z"/>
          <path class="st21" d="M264.23,198.28v1.15c-3.8,1.41-8.23,6.48-13.77,5.74,1.4-1.86,3.24-4.82,4.59-6.88,2.86-.34,6.5.49,9.18,0Z"/>
          <path class="st21" d="M308.98,159.27c-2.47,1.67-6.92,3.07-9.18,4.59v-2.29c2.62-.71,7.23-5.38,9.18-2.29Z"/>
          <path class="st21" d="M335.37,179.92h-3.44v-1.15c1.1.58,2.38-1.06,3.44,1.15Z"/>
          <path class="st9" d="M392.74,142.05c13.55,6.05,25.94,17.51,17.21,33.85-1.35,2.52-10.32,8.46-10.33,9.18,0,.54,5.11,5.36,5.74,9.18,5.88,35.59-27.85,38.9-52.78,41.88-3.2.38-7.35-.55-10.33,0-5.55-1.48-12.59-2.1-18.36-2.29-.32-2.05-3.12-.89-4.59-1.15-1.79-.31-3.94-.77-5.74-1.15,1.45-1.17,2.34-3.14,4.02-3.44,10.69-1.92,30.39,2.44,44.75,0,35.54-6.04,47.67-41.17,6.31-47.05,6.37-5.48,17.67.74,25.82-1.15,9.37-2.17,11.47-14.6,9.75-22.38l-11.47-15.49Z"/>
          <path class="st20" d="M392.74,142.05l11.47,15.49c1.72,7.78-.39,20.2-9.75,22.38-8.15,1.89-19.45-4.33-25.82,1.15-1.34-.19-5.31-.64-5.74,1.15-4.62-1.22-12.43.01-12.62-3.44,13.43-4.83,26.41-13.22,41.31-15.49,1.42-3.3-18.68-6.06-20.65-6.31l-2.29-6.88c3.1-.06,10.7-.71,13.77-1.15,10.08-1.43,7.5-5.16,1.15-10.33,2.25,1.05,5.88,1.97,9.18,3.44Z"/>
          <path class="st30" d="M373.24,132.87c.54.25,3.91,3.38,9.18,5.74.32.14.83-.15,1.15,0,6.35,5.17,8.93,8.89-1.15,10.33-4.99-5.61-18.59-3.92-24.1.57,3.27.99,6.97.64,10.33.57l2.29,6.88c-11.57-1.48-20.7-1.22-32.13,0,9.78-6.64,18.15-19.68,29.83-25.24,2.1,1.09,3.86.81,4.59,1.15Z"/>
          <path class="st22" d="M368.65,181.07c41.36,5.88,29.23,41-6.31,47.05-14.36,2.44-34.07-1.92-44.75,0-1.67.3-2.57,2.27-4.02,3.44-4.97-1.05-9.86-2.46-14.92-3.44-1.65-.32-5.28-2.96-6.88,0-10.47-5.3-3.6-5.55-7.46-8.03-4.44-2.86-18.56-1.98-23.52-6.88,5.4-2.82,10.12-6.15,16.06-8.03,17.12-5.41,34.91-6.41,52.78-5.74l1.15,1.15c-.37,2.58-2.34.23-3.44,1.72l5.16,2.87c-10.04-.73-19.34,3.78-28.69,6.88,15.25,10.3,57.09,13.23,72.29,3.44,18.17-11.7-10.28-20.65-20.08-24.67,4.79-5.61,31.21,7.39,32.13,5.74-4.99-7.45-16.82-12.12-25.24-14.34.42-1.79,4.39-1.34,5.74-1.15Z"/>
          <path class="st11" d="M298.65,228.11v2.29c-2.21-.95-5.26-1.47-6.88-2.29,1.61-2.96,5.24-.32,6.88,0Z"/>
          <path class="st13" d="M382.42,148.94c-3.07.44-10.67,1.09-13.77,1.15-3.36.07-7.06.42-10.33-.57,5.51-4.49,19.1-6.18,24.1-.57Z"/>
        </g>
        <path class="st21" d="M173.58,291.22c-1.24,2.69-1.82,8.57-3.44,12.62-1.21-3.55.36-10.06,1.15-13.77l2.29,1.15Z"/>
        <path class="st21" d="M157.52,256.8c-1.65,1.37-1.86,5.32-5.16,5.74-1.02-2.82,2.74-4.88,4.02-6.88l1.15,1.15Z"/>
        <path class="st21" d="M187.35,251.06c.57-2.01,1.06-4.07,3.44-4.59-1.11,1.62-3.03,3.92-3.44,4.59Z"/>
        <path class="st21" d="M276.85,267.12c.41,1.28,1.55,1.77,1.15,3.44-3.02-1.53-4.72-4.5-6.88-6.88l2.29-1.15c.2.4,2.63,2.04,3.44,4.59Z"/>
        <path class="st21" d="M216.04,106.48h-3.44c-.34-1.02-.12-2.17-1.15-3.44.34-.82-2.46-2.09-.57-3.44,2.8,1.73,3.55,4.68,5.16,6.88Z"/>
        <g>
          <path class="st30" d="M64.58,128.28c-.18,3.5,3.86,7.73,3.44,11.47-2.45.81-9.21,3.73-9.75,6.88,14.16,0,29.34-1.89,40.73,8.61-14.73-.21-40.76-3.92-48.77,10.9,16.03-4.46,25.54,2.28,39.01,6.88,1.77.61,2.59-2.7,4.59-2.29,4.53.91,8.99,9.97,12.62,10.33,3.27.32,7.1-5.86,11.47-4.59,1,.29,5.62,6.11,9.75,8.03,1.88.87,4.57,1.24,6.88,2.29,5.93,2.69,12.67,6.76,18.36,9.18-7.55,4.76-15.01-1.55-23.52,0l13.2,12.05c-21.32,5.49-43.8,10.57-65.98,8.61-6.86-12.26,11.15-19.72,17.21-27.54-15.81-1.18-29.88,5.84-43.6,12.62-3.3-18.34,16.79-20.97,29.26-26.96-14.58-5.43-32.59,11.98-43.6,0-8.18-8.9-7.22-25.24,0-34.42l12.62-9.75c5.48-1.56,10.18-3.15,16.06-2.29Z"/>
          <path class="st20" d="M48.51,130.58l-12.62,9.75c-7.22,9.18-8.18,25.52,0,34.42,11.01,11.98,29.03-5.43,43.6,0-12.47,5.99-32.56,8.62-29.26,26.96,13.72-6.78,27.79-13.8,43.6-12.62-6.06,7.82-24.07,15.28-17.21,27.54,22.18,1.96,44.65-3.12,65.98-8.61l-13.2-12.05c8.52-1.55,15.97,4.76,23.52,0,10.03,4.27,22.45,7.21,32.13,11.47,2.8,1.24,5.39,3.21,8.03,4.59l-93.52,10.33c-3.03,8.4,1.72,8.47,8.61,9.18-31.27,1.07-71.18,3.31-73.44-37.87,1.36-4.19,5.73-9.19,5.74-9.75,0-1.18-13.09-12.29-14.92-18.36-5.73-19.05,5.84-30.12,22.95-35Z"/>
          <path class="st22" d="M181.61,229.26c-1.03-4.96-11.42,3.1-13.2,3.44-6.26,1.2-23.17-.09-28.11,1.15.15-1.4,1.16-.77,2.29-2.29.12-.16,2.55-.89,0-1.15-2.32.16-4.6.74-6.88,1.15-8.26-5.12-18.39.94-27.54,0-6.88-.71-11.63-.78-8.61-9.18l93.52-10.33c4.1,2.14,8.95,3.16,12.62,6.31-7.9,3.75-16.64,6.24-24.1,10.9Z"/>
          <path class="st9" d="M108.18,231.55c9.15.94,19.28-5.12,27.54,0-34.51,6.16-121.84,26.7-100.97-37.87,2.26,41.18,42.17,38.94,73.44,37.87Z"/>
          <path class="st13" d="M136.86,140.91l2.29,5.74c-8.48-8.23-25.95-26.45-37.29-27.54-7.8-.75-14.08,1.29-18.93,7.46.24,2.52,18.93,5.45,17.79,12.05-10.49-2.05-22.3-2.3-32.7,1.15.42-3.75-3.62-7.98-3.44-11.47.12-2.28,6.92-14.2,9.75-16.06,20.98-13.76,48.4,16.26,62.54,28.69Z"/>
          <path class="st21" d="M146.04,146.64c1.06,1.46,6.73,3.69,5.16,6.88-3.03-1.52-5.13-4.98-7.46-6.88h2.29Z"/>
          <path class="st13" d="M139.16,146.64c4.53,4.4,9.55,8.44,13.77,13.2-.86,4.35-19.19-5.32-21.8,1.72-.76-.02-1.54-.02-2.29,0-2.04.05-3.79-.29-5.74-.57-.04,1.97,3.87,2.25,5.74,2.87,9.19,3.03,16.25,5.24,25.24,9.18l.57,4.59c-4.57,1.07-10.78-2.42-14.92-1.15-1.65.51-3.14,4.46-3.44,4.59-3.46,1.52-5.26-2.51-7.46,2.29-.03.07-1.35-.18-1.15,1.15-4.14-1.92-8.76-7.74-9.75-8.03-4.38-1.27-8.21,4.91-11.47,4.59-3.63-.36-8.1-9.42-12.62-10.33-2-.4-2.82,2.9-4.59,2.29-13.48-4.6-22.98-11.35-39.01-6.88,8-14.82,34.03-11.11,48.77-10.9-11.39-10.5-26.57-8.61-40.73-8.61.54-3.16,7.31-6.07,9.75-6.88,10.41-3.45,22.21-3.19,32.7-1.15,1.14-6.6-17.54-9.53-17.79-12.05,4.85-6.16,11.13-8.21,18.93-7.46,11.35,1.09,28.81,19.31,37.29,27.54Z"/>
          <path class="st21" d="M135.72,183.36l-1.15,3.44c-2.32-1.05-5-1.42-6.88-2.29-.2-1.33,1.11-1.07,1.15-1.15,2.25.17,4.65-.25,6.88,0Z"/>
          <path class="st21" d="M128.83,161.56v2.29c-1.87-.62-5.78-.9-5.74-2.87,1.94.29,3.7.63,5.74.57Z"/>
        </g>
        <path class="st21" d="M265.38,248.77c-5.1.83-2.68-2.01-3.44-3.44,1.36.01,2.79,2.33,3.44,3.44Z"/>
        <path class="st21" d="M189.65,116.81c-.95-.12-1.12.26-1.15,1.15l-5.16-5.74c3.33-.05,4.45,3.09,6.31,4.59Z"/>
      </g>
    </g>
  </g>
  <g id="Generative_Object1" data-name="Generative_Object">
    <g>
      <path class="st7" d="M253.9,58.29l1.15,1.15c.7.88,1.11,1.08,1.15,1.15,15.17,26.7-5.22,95.44-22.38,120.48,2.66-30.15-5.37-58.9-24.1-82.62,10.34,23.07,16.38,47.29,14.34,72.86l-14.92-30.98-24.67-29.26,20.08,36.14,8.03,29.83c-1.27-3.46-34.03-41.27-36.72-35.57,13.8,13.27,28.24,31.33,29.26,51.06-21.39-18.54-48.93-30.71-77.45-31.55,25.28,6.32,47.07,18.29,65.4,36.72l-64.83-14.34,78.6,33.85c-25.31,11.23-52.7,28.8-59.09,56.8,12.76-20.71,33.43-36.68,56.8-44.18-14.59,18.98-30.68,41.3-32.7,65.98,9.29-25,27.33-44.82,44.75-64.26l-4.02,40.73,5.16,22.38c.64-21.93,2.18-45.84,14.92-64.26l52.78,48.19-33.28-45.9c25.04,5.25,49.03,15.97,68.27,32.7-11.11-14.64-26.86-25.53-43.03-33.85-12.08-6.21-38.97-7.41-18.36-20.65,17.63-11.33,46.85-9.75,67.13-12.05-17.35-3.54-35.16-3.34-52.78-2.29l71.72-23.52-70.57,9.75,48.19-26.39-37.87,10.33c15.17-19.25,32.82-56.3,60.81-57.95,12.67-.74,25.56,4.3,30.98,16.64,1.48,3.37.53,10.16,1.15,11.47,1.1,2.33,37.92,6.63,36.72,30.41-.5,9.77-8.74,13.32-9.18,15.49-.17.82,2.7,11.7,2.29,16.64-3.97,48.71-74.07,35.3-104.42,30.98-1.24-.18-2.77-2.4-4.59-.57,1.18,1.5,2.96,2.09,4.59,2.87,32.78,15.69,93.26,13.28,87.21,60.24-.61,4.73-8.01,18.45-8.03,19.51-.05,2.76,6.2,9.77,6.88,13.77,4.48,26.12-16.8,36.56-39.59,35-5.48-.38-17.57-5.65-20.65-5.74-5.36-.15-8.95,5.02-12.62,5.74-31.92,6.27-47.27-42.18-60.24-61.96-.51-.77-.79-1.76-1.72-2.29-.91.36-.54,1.49-.57,2.29-.38,8.49,2.73,19.29,2.29,29.26-1.65,37.39-19.34,83.83-64.83,59.09-2.8-1.52-12.88-11.36-13.77-11.47-4.14-.52-14.1,11.94-29.83,3.44-8.84-4.77-15.78-23.66-17.21-24.1-6.73-2.06-18.95,6.25-29.26-6.31-8.7-10.6-3.67-25.86-4.59-27.54-.86-1.56-23.43-3.17-26.39-20.65-5.8-34.18,45.4-53.23,69.99-64.83,6.34-2.99,13.61-4.53,19.51-8.61-.48-1.77-17.83,4.75-19.51,5.16-29.32,7.21-120.69,23.69-111.3-31.55.82-4.81,10.47-17.17,10.33-18.36-.7-5.71-32.99-24.63-8.61-45.32,11.95-10.14,26.5-6.43,35.57-10.33,1.26-.54,5.58-9.98,9.18-12.62,20.48-15.05,48.43,13.17,63.68,26.39,5.01,4.35,9.88,11.04,16.06,13.2-4.09-5.39-9.87-10.05-13.77-15.49-12.51-17.46-44.51-70.82-8.61-80.32,3.44-.91,10.48.96,13.77,0,1.09-.32,13.42-12.69,17.21-14.92,15.53-9.11,31.96-12.53,48.19-3.44,5.3,2.97,16.03,16.93,17.21,17.21,3.49.82,12.43-9.66,24.67,1.15Z"/>
      <path class="st4" d="M326.19,15.84c6.29,3.72,1.04,13.21-2.87,17.21-5.5.82-9.89-2.19-9.75-8.03,1.24-.76.96-.96,1.15-1.15,1.6-1.62,1.79-13.76,11.47-8.03Z"/>
      <path class="st4" d="M305.54,27.31c15.09,5.77-7.24,28.01-10.33,12.62-.94-4.71,3.99-15.04,10.33-12.62Z"/>
      <path class="st32" d="M140.31,236.14v-3.44c1.68-.41,19.02-6.93,19.51-5.16-5.9,4.07-13.16,5.62-19.51,8.61Z"/>
      <path class="st32" d="M139.16,140.91l2.29-2.29c3.9,5.44,9.68,10.1,13.77,15.49-6.18-2.16-11.05-8.85-16.06-13.2Z"/>
      <path class="st32" d="M303.24,230.41v2.29c-1.63-.78-3.41-1.37-4.59-2.87,1.82-1.82,3.35.4,4.59.57Z"/>
      <path class="st32" d="M329.63,96.16c.11-.86.15-1.27,1.15-1.15-.52.7-.53.66-1.15,1.15Z"/>
      <path class="st32" d="M874.67,88.12c.22-.21.3-.49,1.15-1.15.12.98-.27,1.08-1.15,1.15Z"/>
      <path class="st32" d="M547.65,100.75c.12,1.81-1.97.89-2.29,1.15.12-.04.62-.57,2.29-1.15Z"/>
      <path class="st32" d="M255.05,59.44l-1.15-1.15c.52.46.67.55,1.15,1.15Z"/>
      <path class="st32" d="M619.94,105.34c-.9-.43-.71-.19-1.15-1.15,1-.12,1.04.29,1.15,1.15Z"/>
      <path class="st32" d="M876.96,86.98c-.19-1.31.85-.97,1.15-1.15.14,1.14-.44.95-1.15,1.15Z"/>
      <path class="st32" d="M965.32,84.68h1.15-1.15Z"/>
      <path class="st32" d="M256.2,299.25h-2.29c.04-.8-.34-1.94.57-2.29.93.53,1.22,1.52,1.72,2.29Z"/>
      <path class="st32" d="M313.57,25.01c.02-.88.2-1.26,1.15-1.15-.18.19.1.39-1.15,1.15Z"/>
      <path class="st32" d="M337.67,69.76c.21-.6-.05-1.31,1.15-1.15-.11.86-.15,1.27-1.15,1.15Z"/>
      <path class="st32" d="M1275.13,189.1c-1.65-.03-1.28-2.22-1.15-3.44.6,1.45.75,1.45,1.15,3.44Z"/>
      <g>
        <path class="st32" d="M333.08,85.83c-.33-1-6.49-5.03-8.61-4.59-8.61,1.78-8.03,25.4,5.16,14.92-.57,4.54,1.31,3.44,5.16,3.44l3.44-9.18c-.69,8.27,7.51,7.23,13.2,10.9l-5.74,7.46c-27.99,1.64-45.65,38.7-60.81,57.95l37.87-10.33-48.19,26.39,70.57-9.75-71.72,23.52c17.62-1.04,35.44-1.25,52.78,2.29-20.28,2.3-49.5.72-67.13,12.05-20.61,13.24,6.28,14.44,18.36,20.65,16.17,8.32,31.92,19.21,43.03,33.85-19.24-16.73-43.23-27.45-68.27-32.7l33.28,45.9-52.78-48.19c-12.73,18.42-14.28,42.33-14.92,64.26l-5.16-22.38,4.02-40.73c-17.42,19.44-35.46,39.25-44.75,64.26,2.02-24.68,18.11-47,32.7-65.98-23.37,7.5-44.04,23.47-56.8,44.18,6.4-28,33.79-45.57,59.09-56.8l-78.6-33.85,64.83,14.34c-18.33-18.42-40.13-30.4-65.4-36.72,28.52.84,56.06,13.01,77.45,31.55-1.02-19.73-15.46-37.79-29.26-51.06,2.69-5.7,35.44,32.11,36.72,35.57l-8.03-29.83-20.08-36.14,24.67,29.26,14.92,30.98c2.03-25.57-4-49.79-14.34-72.86,18.73,23.71,26.76,52.47,24.1,82.62,17.15-25.05,37.55-93.78,22.38-120.48,6.26.87.83-5.04,6.31-6.88,10.81-3.64,25.34.26,32.7-13.77,3.08,15.38,25.42-6.85,10.33-12.62.9-2.4,7.36-1.88,8.03-2.29-.14,5.84,4.26,8.85,9.75,8.03,3.91-4,9.16-13.49,2.87-17.21h79.75c2.15,4.34-2.3,5.09-1.72,9.75,1.42,11.39,10.4,18.07-5.16,28.11-3.99,2.57-13.13,3.57-14.92,4.59-13.34,7.61-27.94,20.07-37.87,32.13-4.2-3.12-7.7-8.2-13.2-4.59Z"/>
        <g>
          <path class="st4" d="M333.08,85.83c.5,1.51-1.51,8.11-2.29,9.18-1-.12-1.04.29-1.15,1.15-13.19,10.49-13.77-13.13-5.16-14.92,2.11-.44,8.27,3.59,8.61,4.59Z"/>
          <path class="st4" d="M317.59,43.37c2.02,2.25.06,8.15-.57,10.9-9.87,42.94-36.31,110.86-63.11,145.73-10.12,13.17-20.77,29.05-36.72,11.47,25.23-16.08,46.15-49.44,60.81-75.73,16-28.68,29.27-61.16,39.59-92.37Z"/>
          <path class="st4" d="M338.81,65.17c.2.57.11,2.58,0,3.44-1.2-.16-.94.54-1.15,1.15-.36,1.04-.16,2.06-1.15,3.44-9.34,13.11-18.49-4.19-7.46-12.62,3.92-.68,8.28.46,9.75,4.59Z"/>
          <path class="st4" d="M333.65,35.34c11.42-2.5,8.51,16.57,2.29,18.36-10.38,2.99-10.01-16.67-2.29-18.36Z"/>
          <path class="st4" d="M293.49,47.96c11.35,2.91,7.22,13.54,0,18.36-11.35-2.91-7.22-13.54,0-18.36Z"/>
          <path class="st4" d="M284.31,68.62c1.22-.33,3.18.22,4.59,0l4.02,4.02c.61,5.14-2.43,9.82-6.31,13.2-10.88.91-7.96-15.7-2.29-17.21Z"/>
        </g>
      </g>
    </g>
    <g>
      <path class="st32" d="M828.77,77.8c7.45.26,25.48,3.54,32.7,5.74,6.38,1.94-1.6,5.8,13.2,4.59-2.96,2.83-8.97,8.51-9.75,12.62l18.36-16.06-4.59,10.33,22.95-14.92-9.18,13.77,21.8-14.92-11.47,13.77c2.74-1.94,22.98-15.85,24.67-12.05l-15.49,13.2,21.8-11.47-10.33,11.47,18.36-8.03-6.88,9.18,21.23-6.31c-7.71,11.39-14.11,6.8-23.52,9.75-29.36,9.21-56.42,26.5-56.22,60.81l1.72-7.46,2.87,2.87,5.74-17.21c1.89,4.27-2.67,8.77,1.72,12.05l9.75-24.67c2.26.74-6.59,18.43-1.15,20.65l11.47-27.54c-.57,7.47-6.18,14.06-3.44,21.8l12.62-26.39c1.49,1.93-7.11,20.93-1.15,20.65l8.03-17.21v13.77l12.05-17.79c.22,4.15-6.02,9.57-1.72,13.2l12.62-18.36c-4.98,20.33-20.23,40.19-6.88,60.81,5.12-4.56.51-11.89-.57-17.79l6.88,9.18-3.44-17.21,6.88,11.47-3.44-18.36,6.31,8.61,1.15-14.92c1.29,1.89-.43,10.69,4.02,9.75v-17.21l4.59,9.18,2.29-18.36,2.87,12.05c.59-6.51,1.54-12.11,4.02-17.21,3.45-.34,3.88,3.86,4.59,6.31,3.3,11.43,6.64,23.97,9.18,35.57,1.89,8.61,6.28,22.97,2.29,30.41-4.75-18.16-32.96,1.06-35,13.77-.95-.21,3-17.66-1.15-19.51-1.05-.47-22.01-.66-22.95,0-8.3,5.89,9.35,7.87,9.75,8.61.75,1.39-.02,27.12,0,31.55h-1.15c-3.07-1.23-17.02,6.27-17.79,5.74-.93-.65-5.02-17.82-14.34-16.06,3.78-40.85-52.95-38.44-61.96-16.06-4.77-2.29-13.91,3.17-17.79,2.29s-15.52-19.92-17.79-24.1c-1.98-3.66-2.26-12.19-5.74-17.79-4.07-6.55-11.99-9.7-16.64-15.49,8.37,3.29,10.84,2.94,16.06,10.33v-6.88l4.59,10.33,2.29-5.74,3.44,11.47,2.87-6.31,2.87,12.05.57-9.75c3.87,1.45,3.06,11.72,3.44,16.06l3.44-8.03,1.15,12.62,3.44-4.59c-1.95,9,3.78,9.01,4.02,16.64,7.17-23.5-9.3-42.64-29.26-52.21,7.86,3.19,12.14,1.06,17.79,7.46l-6.31-8.61c2.32-4.2,14.85,9.82,15.49,13.2l-3.44-12.62,11.47,13.77-5.74-13.77,12.62,16.06-2.87-8.61,7.46,7.46c-3.91-16.59,4.45,5.03,10.9,6.31-6.95-15.32-18.56-25.99-35-30.41-4.52-1.22-19.68-.45-21.23-2.87-3.27-5.12,11.2.16,12.05-.57l-3.44-4.59,13.77,3.44c-2.85-3.91-7.95-5.57-12.62-5.74,4.83-4.76,15.24,3.71,21.8,4.59l-12.62-9.18,20.65,6.88-9.75-6.31c1.62-3.37,14.16,5.59,16.64,6.31,1.18.35,4.26-4.08,9.18,1.15-20.69-21.89-57.31-15.79-76.3,5.16,6.48-11.59-1.45-2.62-2.29-5.74l12.62-5.74-9.18-1.15,14.92-5.74-14.92,1.15c4.88-5.29,12.68-5.95,19.51-6.88l-11.47-2.29,15.49-2.87c-16.9-4.1-4.08-3.52,5.16-5.16l-10.9-2.87c9.25-.88,16.85-2.57,24.67-2.29Z"/>
      <path class="st18" d="M1268.24,333.68c.5,3.45-3.06,2.22-5.16,2.29-264.12,8.95-545.79,7.66-810.09,0-2.1-.06-5.67,1.15-5.16-2.29,36.59,3.96,89.47-2.1,127.94-2.29,188.11-.97,376.43-.98,564.54,0,39.11.2,90.41,5.98,127.94,2.29Z"/>
      <path class="st32" d="M545.35,101.89c-2.54,2-9.66,7.89-9.75,11.47,2.19-1.54,14.19-10.97,15.49-8.61.58,1.06-7.8,4.26-5.16,7.46l12.62-11.47-5.74,11.47,14.34-9.75-7.46,10.9,13.77-10.33-6.88,11.47,16.06-9.18-7.46,7.46c-1.58,6.89,9.58-4.96,13.2-5.16,1.59,4.45-10.34,6.23-5.74,9.18l13.2-5.16-6.88,4.59c-.05,3.63,2.71-.7,2.87-.57,1.85,1.46-1.34,2.82,0,3.44.53.24,8.2-5.24,10.9-4.02.84,1.63-10.01,7.95-11.47,8.61-1.31.58-11.41,4.48-12.05,4.59-8.22,1.41-26.76-4.87-23.52,6.88-5.57-1.97.58-8.18-2.87-9.18l-5.16,1.72c-1.58,12.89,5.65,26.58-9.18,31.55.14-2.55-1.06-19.86-1.72-20.65-.61-.73-16.58-4.45-18.36-4.59-10.63-.86-21.86,1.29-31.55,5.74l5.74-6.31c-.75-.9-6.53-.78-8.03-.57,1.81-2.88,11.83-7.5,12.62-9.75,2.93-8.37-7.19-11.6,4.02-18.93,7.21-4.71,22.51-4.53,30.98-3.44,5.09.66-1.95,6.24,13.2,1.15Z"/>
      <path class="st32" d="M669.28,89.27c13.91-.45,27.07,2.54,41.31,0l-4.59,4.02,7.46-2.87c-4.74,8.51,14.3-4.11,19.51-3.44l-12.62,9.18,14.92-5.74-6.88,8.03,14.92-4.59-6.88,8.03,9.18-4.59,2.87,1.72-5.16,6.31c4.61-3.33,10.31-4.78,16.06-4.59l-10.9,5.16,14.34-.57-9.75,4.02,14.34.57c-.13,3.13-7.5,1.84-7.46,2.87s11.07-.47,12.62,3.44c-24.6-2.13-48.68-12.03-67.13,12.05-19.95-23.54-56.72-26.14-80.89-7.46l9.18-8.03c-12.43-1.48.58-3.64,5.74-4.59l-8.61-2.87,15.49-1.72-10.9-4.02,16.64-.57-13.2-1.72c2.04-4.77,13.15-1.23,18.36-2.29l-6.88-4.59c4.15.29,16.38,4.29,13.77-1.15,2.64,2.19,4.91,0,5.16,0Z"/>
      <path class="st2" d="M484.54,132.87c1.5-.2,7.28-.33,8.03.57l-5.74,6.31c-.07.03.3.38-1.15,1.15-4.24,2.26-6.71,5.07-10.33,8.03,1.67-4.69-2.64-14.45,9.18-16.06Z"/>
      <path class="st18" d="M980.23,104.19c2.47,2.66,16.27,60.08,19.51,69.99.5,1.54-4.68,2.9,2.29,6.88l8.03,65.4c-1.78,3.63-16.75-.54-11.47,8.03-11.48.29-22.07-.18-33.28,0,5.9-9.37-9.37-3.54-11.47-8.61-.61-1.46-.35-28.08,0-31.55,11.92-6.87,24.2-13.45,38.44-12.62,2.24-.91.85-9.98.57-12.05-.05-.39-2.73-11.03-4.59-6.31.1-.95.2-2.68,0-3.44,3.99-7.44-.41-21.79-2.29-30.41-2.54-11.6-5.88-24.14-9.18-35.57-.71-2.45-1.14-6.65-4.59-6.31.93-1.91,1.92-3.82,2.87-5.74.49-.19,4.75,1.85,5.16,2.29Z"/>
      <path class="st12" d="M538.47,159.27c-.11,2.08.08,4.21,0,6.31-.26.54-2.55-.45-3.44-.57-11.58-48.98-71.01-15.84-32.7,16.06,3.69,3.07,10.37,5.18,14.34,8.03,9.99,7.18,25.99,13.35,28.69,27.54,7.32,38.49-40.93,52.5-64.83,36.72-4.33-2.86-9.41-26.6-8.61-30.41.52-2.45,5.5-.6,6.88-1.72,1.27,3.34,1.86,5.52,3.44,9.18,18.65,43.05,59.28,13.56,45.9-13.2-2.43-4.85-9.66-7.98-13.77-10.9-9.33-6.62-30.16-15.65-35.57-25.24-7-12.41-4.57-30.85,6.88-40.16,1.45-.77,1.07-1.11,1.15-1.15,9.7-4.45,20.92-6.59,31.55-5.74,1.78.14,17.75,3.86,18.36,4.59.67.79,1.86,18.1,1.72,20.65Z"/>
      <path class="st12" d="M803.53,175.33c.35.12.84-.14,1.15,0,13.25,5.89,10.85,22.94,11.47,34.42.36,6.51-1.47,35.32,1.72,37.87,2.29,1.83,13.35-1.24,10.9,5.16-.79,2.08-33.57,2.74-35,1.72-6.97-4.95,8.03-6.34,8.61-7.46.65-1.26-.2-15.57,0-18.93.45-7.78,2.55-29.5,1.15-35.57-4.38-18.96-33.12-11.68-37.87,6.88-2.25,8.79-1.51,20.74-1.15,29.83.12,3.08-.62,15.34,0,16.64,2.02,4.25,16.02-.25,10.33,8.61-8.3.05-25.67,1.41-32.7,0-4.08-.82-2.86-.41-2.87-4.59,14.13-.24,10.92-9.94,11.47-20.65.29-5.53.88-43.09,0-45.32-1.35-3.44-16.55-2.2-10.33-9.18,1.06-1.19,1.3.93,2.29.57.32-.11,4.36-1.12,4.59-1.15,16.57-2.1,18.19-1.57,17.79,14.92,1.97-3.81,9.75-12.27,13.2-13.77.32-.14,5.51-.9,6.88-1.15,7.57-1.34,10.94-1.46,18.36,1.15Z"/>
      <path class="st2" d="M555.68,135.17c1.57.56,10.33-.39,11.47,1.72,2.14,3.96.43,79.02,0,90.07l-21.8-10.33c-2.7-14.19-18.7-20.36-28.69-27.54-1.71-8.54,11.23-4.34,12.62-6.31,1.12-1.58-1.57-16.65,1.72-20.08,1.38,1.75,1.86,1.99,4.02,2.29.9.12,3.18,1.11,3.44.57.08-2.1-.11-4.23,0-6.31,14.83-4.98,7.6-18.67,9.18-31.55l5.16-1.72c3.45,1-2.7,7.21,2.87,9.18Z"/>
      <path class="st12" d="M988.27,179.92c.2.77.1,2.49,0,3.44-1.17,11.23-16.14,10.24-18.93,0-9.91,8.45-14.18,18-15.49,30.98-.35,3.48-.61,30.1,0,31.55,2.11,5.07,17.38-.76,11.47,8.61-10.94.18-26.6-1.44-36.72,0-5.84-9.05,8.57-4.2,10.33-7.46.78-1.44.02-28.19,0-32.7s.75-30.17,0-31.55c-.4-.74-18.06-2.72-9.75-8.61.94-.66,21.9-.47,22.95,0,4.15,1.84.19,19.29,1.15,19.51,2.03-12.71,30.24-31.93,35-13.77Z"/>
      <path class="st12" d="M998.59,254.5c-5.27-8.57,9.7-4.4,11.47-8.03,1.38-2.81,1.34-59.71,0-62.54-1.12-2.36-5.97-1.69-8.03-2.87-6.97-3.98-1.79-5.34-2.29-6.88,3.61.53,24.17-.94,25.24.57,2.09,2.95-2.09,69.34,0,72.29.91,1.28,18.67-1.63,12.62,6.88-1.13,1.59-33.84.44-39.01.57Z"/>
      <path class="st2" d="M478.8,181.07c5.41,9.59,26.24,18.63,35.57,25.24-16.35,5.52-25.55,6.35-32.13,24.1-1.58-3.65-2.17-5.84-3.44-9.18-1.13-2.98-7.88-20.09-8.03-21.23-.28-2.02,2.45-24.48,8.03-18.93Z"/>
      <path class="st18" d="M736.98,229.26c3.96-.72,9.56.52,13.77,0-.56,10.71,2.65,20.42-11.47,20.65-4.2.07-5.92-2.46-9.18-3.44-.21-.06,1.46-2.39-2.87-2.29-1.89.04-8.81,6.92-10.9-.57-3.31-11.86,2.67-39.79,0-53.36,10.93-5.68,10.04,31.78,9.18,36.14-.63,3.21-3.43,5.9-5.74,8.03,1.13,2.38,15.5-4.85,17.21-5.16Z"/>
      <path class="st2" d="M808.12,166.15c2.26,4.18,14.06,23.25,17.79,24.1s13.01-4.58,17.79-2.29c-3.16,7.85-2.65,16.16,0,24.1-10.44,1.41-17.75,1.96-27.54-2.29-.63-11.49,1.78-28.53-11.47-34.42,1.01-2.95.06-9.79,3.44-9.18Z"/>
      <path class="st2" d="M786.32,233.85l-21.8-4.59c-.36-9.09-1.1-21.05,1.15-29.83l20.65-5.16c2.14,13.31,1.03,26.28,0,39.59Z"/>
      <path class="st18" d="M928.6,254.5c-7.2,1.02-9.04,3.64-14.92,6.88-1.94-6.76-6.93-9.92-12.62-13.77,8.46-.22,18.92-10.21,17.21-19.51l18.93,6.88.57-20.65h1.15c.02,4.52.78,31.26,0,32.7-1.76,3.26-16.16-1.59-10.33,7.46Z"/>
      <path class="st18" d="M786.32,233.85c-.38,4.84,1.97,10.02-1.15,16.64-4.61,9.79-6.58,3.99-10.33,4.02,5.69-8.86-8.3-4.36-10.33-8.61-.62-1.29.12-13.56,0-16.64l21.8,4.59Z"/>
      <path class="st2" d="M696.82,209.75c.3-7.48-10.78-5.64-13.77-10.9-.38-.68,2-13.76-1.15-15.49,19.16-12.11,28.18,20.95,14.92,26.39Z"/>
      <path class="st2" d="M619.94,223.52c.35,2.41.51,22.46,0,23.52-1.88,3.87-8.98-.86-9.18,4.02-4.95-6.95-1.09-23.43-2.29-33.85,7.87-2.32,1.5,10.93,9.75.57-.09,1.64,1.65,5.26,1.72,5.74Z"/>
      <path class="st2" d="M803.53,192.54c1.4,6.07-.69,27.79-1.15,35.57-4.1-.94-5.03,4.73-8.03.57,1.6-5.77-3.25-28.64-1.15-32.13.29-.47,8.61-1.94,10.33-4.02Z"/>
      <path class="st2" d="M602.73,181.07c3.72,8.06-1.73,19.58-4.02,27.54-2.16-8.35-4.86-12.26-10.9-18.36,3.96-3.84,9.4-8.65,14.92-9.18Z"/>
      <path class="st18" d="M593.55,249.91c-2.01-2.66-9.86-1.58-11.47-2.87-1.7-1.36-.94-8.5-1.15-10.9l14.92-.57c1.08,5.79.22,9.59-2.29,14.34Z"/>
      <g>
        <path class="st32" d="M1044.49,39.93c40.84,21.91,88.37,30.26,132.53,47.05,11.63,4.42,82.2,34.64,84.34,43.03,4.51,17.66-24.9,17.88-21.8,29.83,3.25,12.57,36.77,4.77,34.42,25.82-7.61-18.43-46.06-10.41-52.78,0-12.74-15.25-32.43-14.68-50.49-15.49l10.9-.57-2.29-5.74,14.92,4.59c1.06-6.7-11.2-3.12-12.62-8.03l20.65,5.74-9.18-8.03c5.87,1.4,11.82,2.34,16.06,6.88l-8.03-10.33,18.36,9.18-5.74-8.03,18.93,7.46c-16.72-16.88-45.63-19.76-64.83-5.16l4.02-5.16-5.16-2.87,15.49-4.02-6.31-4.02h11.47l-4.59-3.44c4.71-1.85,9.65-.56,14.34-1.15,9.08-1.14,13.53-1.97,1.15-2.87l5.74-3.44c1.5-3.19-26.46-3.36-29.26-2.87-5.86,1.03-10.8,6.72-11.47,6.88-7.65,1.84-42.44-1.98-45.9,0-2.13,1.84.52,4.36.57,4.59.87,3.81,3.91,7.42,2.29,13.2l3.44-4.59-.57,7.46c-12.47-3.54-26.06-8.72-37.29.57,2.52,3.12,10.37.29,10.9.57.79.42-3.2,6.29,5.74,0l-1.15,5.74,9.18-5.74-5.74,6.88,9.18-4.59c-2.97,4.94-4.88,12.42,1.15,3.44l2.29,5.74c3.11-4.05,3.2-6.91,8.61-4.02-7.63,7.22-3.53,3.43,2.29,6.88-31.61.03-53.81,6.02-64.26,38.44-7.1,1.01-12.73,1.34-7.46,10.33,1.31-1.62,4.51-1.43,6.31-1.15-7.85,4.93-.56,20.88-2.29,30.41,2.02,5.24,28.3,12.63,30.41,12.05,2.51-.69,3.78-8.97,5.16-10.9l-13.77-1.72c9.27.5,10.79-6.01,16.64-11.47,2.18-2.03,3.22,2.66,7.46-6.88.46-1.03,3.71-3.73,2.87-9.18l2.87,4.02v-13.77l2.87,4.02.57-9.75,5.16,5.16,2.29-9.18,2.29,10.33c1.8.22,1.27-9.66,1.72-10.9.74-2.03,3.4-1.53,3.44-1.72.78,8.32,2.65,41.65,0,47.62-.53,1.21-23.1,2.95-12.05,7.46,3.51,1.43,72.13,1.17,75.73,0,3.01-.82,10.53-24.63,9.75-25.82-2.93-4.51-12.73,9.94-15.49,12.05-9.2,7.01-15.11,8.66-26.96,8.03,2.08-4.15,1.82-10.6,3.44-14.34.52-1.2,5.47-1.64,5.74-2.29,1.04-2.52-11.93-46.26-11.47-53.36,7.24,3.29,8.06,25.12,11.47,12.05l.57,8.61,4.02-5.16.57,10.9,4.02-6.31v12.62l4.59-5.74-1.72,12.05,6.31-9.75-3.44,16.06,4.59-4.59-.57,9.75c2.69-6.55,4.79,4.87,6.31-5.16,2.71-17.87-5.3-27.23-13.77-41.31l10.9,9.75-4.59-12.62,12.62,11.47-5.74-12.62,12.62,16.06-2.29-10.33c2.95,2.29,4.64,5.65,7.46,8.03.18.75.74,1.69,1.15,2.29,2.62,3.84,12.87,7.56,16.64,5.74,1.19-.58.24-3.07.57-3.44,5.74-6.55,6.18-18.36,18.93-17.21,10.4.93,13.78,18.52,10.9,25.82-2.05,5.19-38.82,4.91-42.46,24.1-5.47,28.88,27.98,38.42,41.88,14.34,3.48,12.33,14.85,17.54,24.67,8.03-2.62,5.43,4.47,8.09,4.59,8.61.21.94-5.45,14.6-5.74,18.36-.93,12.11,2.47,37.48,0,47.05-1.78,6.88-10.75,6.94-16.06,7.46-37.53,3.69-88.83-2.09-127.94-2.29-188.11-.98-376.43-.97-564.54,0-38.47.2-91.35,6.26-127.94,2.29-7.19-.78-17.47-2.46-17.21-12.05.11-4.23,7.38-33.85,9.18-39.01,1.66-4.77,10.51-16.93,11.47-20.65,6.28-24.26-4.37-27.72-18.93-43.03l-24.67-19.51c.4-4.94-2.46-15.82-2.29-16.64.44-2.17,8.68-5.72,9.18-15.49,6.05,6.65,7.62-1.86,6.88-7.46,7.08-2.09,34.42,10.92,39.59,8.61,1.59-.71,1.73-4.58,4.59-6.88.2-.16,3.05,2.83,5.16.57.48-.51,3.84-11.09,4.59-13.2,3.62-2.96,6.09-5.77,10.33-8.03-11.45,9.32-13.89,27.75-6.88,40.16-5.58-5.55-8.31,16.91-8.03,18.93.16,1.14,6.9,18.25,8.03,21.23-1.39,1.12-6.37-.73-6.88,1.72-.8,3.81,4.27,27.55,8.61,30.41,23.9,15.78,72.15,1.77,64.83-36.72l21.8,10.33c-.12,3.15.52,19.22,0,20.08-.43.72-18.52,2.06-10.9,7.46,1.5,1.06,35.13.92,36.72,0,1.31-.76.1-3.7.57-4.59,2.51-4.75,3.38-8.56,2.29-14.34l-14.92.57c-.48-5.5-1.03-37.25,0-40.73.73-2.45,6.22-4.52,6.88-5.16,6.05,6.1,8.74,10.01,10.9,18.36,2.28-7.96,7.74-19.48,4.02-27.54,23.97-2.31,15.94,27.38,17.21,42.46-.07-.48-1.82-4.09-1.72-5.74-8.26,10.36-1.88-2.89-9.75-.57,1.21,10.42-2.66,26.9,2.29,33.85.34.48-.61,2.96.57,3.44,4.45-.58,32.67,1,33.85-.57,4.69-6.24-8.2-5.03-9.75-6.31-3.19-2.64-1.38-33.38-1.72-40.16,3.43.18,6.56.47,9.18-2.29-.2,1.32,1.1,1.08,1.15,1.15,5.1,7.3,5.37-1.36,9.75-4.59.19-.14,2.18,2.29,4.59,1.15,2.13-1.01,1.93-9.15,2.87-12.62,6.56,21.9,15.37-3.55,20.65-6.88,3.15,1.73.76,14.82,1.15,15.49,2.99,5.26,14.07,3.42,13.77,10.9-5.05,2.07-14.26,2.09-20.08,4.59-32.66,14.04-13.36,56.8,16.06,40.16,1.75-.99,8.54-9.3,9.18-9.18,1.86.36,13.64,26.82,28.11,1.15,3.26.98,4.98,3.51,9.18,3.44,0,4.18-1.21,3.77,2.87,4.59,7.03,1.41,24.4.05,32.7,0,3.74-.02,5.72,5.77,10.33-4.02,3.12-6.62.77-11.8,1.15-16.64,1.03-13.31,2.14-26.28,0-39.59l-20.65,5.16c4.74-18.56,33.49-25.84,37.87-6.88-1.72,2.08-10.04,3.54-10.33,4.02-2.11,3.48,2.75,26.35,1.15,32.13,3,4.15,3.93-1.51,8.03-.57-.2,3.36.65,17.67,0,18.93-.58,1.12-15.58,2.51-8.61,7.46,1.43,1.01,34.2.35,35-1.72,2.45-6.41-8.61-3.34-10.9-5.16-3.19-2.55-1.37-31.36-1.72-37.87,9.79,4.25,17.1,3.71,27.54,2.29,2.08,6.24,9.1,12.4,9.18,13.2.24,2.37-29.23,26.42,10.33,30.98-12.24,2.82-25.53,10.94-24.1,25.24,2.79,27.9,87.84,26,74.58-20.08,5.88-3.25,7.71-5.86,14.92-6.88,10.12-1.44,25.78.18,36.72,0,11.2-.18,21.79.29,33.28,0,5.17-.13,37.88,1.02,39.01-.57,6.05-8.51-11.71-5.6-12.62-6.88-2.09-2.95,2.09-69.34,0-72.29-1.08-1.52-21.64-.04-25.24-.57-3.24-9.92-17.03-67.33-19.51-69.99,3.96-10.12,8.68,13.17,10.9,12.62l-1.15-14.92,8.03,17.21v-5.74l3.44,5.74,3.44-5.74,3.44,9.18c4.91-5.58,3.47.59,4.59,1.15,5.94-1.61,1.42-9,0-12.62l9.75,13.2c5.26,2.75-3.27-12.4-1.72-14.34l12.62,19.51-1.15-17.21,11.47,19.51c4.85-2.36-4.43-15.33-2.29-16.06l13.77,20.65-4.59-19.51,13.2,21.23c6.38,4.13-4.77-14.78-2.87-15.49l10.9,18.93,3.44-3.44c.87.77,8.23,22.7,9.18,16.06.3-2.13-11.3-26.5-13.77-29.83-20.63-27.85-56.73-30.16-88.35-27.54l15.49-2.87c-19.06-6.29,10.79-1.63,17.21,0l-12.62-8.03,27.54,6.88-11.47-8.03c-2.94-5.69,22.83,6.56,25.24,6.88l-18.36-13.77c11.4,1.18,20.51,8.64,30.98,12.62l-12.05-10.9c-.61-5.7,24.89,10.83,28.11,10.9l-12.62-13.77,18.36,12.62c3.74-.33-1.89-3.56-1.72-4.02,1.21-3.32,13.21,10.06,15.49,9.75-28.85-34.44-79.8-38.67-113.02-7.46,3.54-6.86,7.31-9.71,13.77-13.77l-12.05,2.87c-.29-5.36,21.43-9.69,21.23-10.9-6.59-2.13-10.98-.95-16.64,2.87,2.16-8.68,18.24-9.34,25.82-10.9-6.37-5.32-18.38-1.49-24.67,2.87,5.31-10.23,24.28-9.59,35-10.9-5.7-4.44-15.77-.34-21.23-.57-1.89-.08-3.95.37-2.29-2.29l30.98-2.29c-4.43-4.11-15.3-4.08-20.65-2.29,5.89-7.52,19.25-1.07,27.54-2.29-7.29-6.14,4.81-2.04,8.61,0Z"/>
        <path class="st12" d="M1012.94,136.32c16.85-4.08,15.97,24.89-1.15,19.51-6.8-2.14-6.96-17.55,1.15-19.51Z"/>
        <path class="st2" d="M1139.15,121.4c9.42-2.55,9.81,10.21,8.03,11.47-8.27,5.89-19.06-8.49-8.03-11.47Z"/>
        <path class="st27" d="M1214.31,194.84c-.41-.6-.96-1.55-1.15-2.29.21.18,4.84-2.73,1.15,2.29Z"/>
      </g>
      <path class="st28" d="M937.78,214.34l-.57,20.65-18.93-6.88c-1.49-8.07-10.82-.04-16.06,3.44l-3.44-10.33c3.24-4.1,6.4-11.96,6.88-17.21,9.32-1.76,13.41,15.41,14.34,16.06.77.53,14.72-6.97,17.79-5.74Z"/>
      <path class="st2" d="M727.8,138.61c-11.03,6.84-20.55,23.73-20.08,36.72l9.18-18.36v9.18l5.74-12.62.57,7.46,9.75-17.79-1.15,11.47,8.03-13.77-2.29,11.47,8.03-11.47-1.15,9.18,10.33-11.47c-.69,5.17-4.74,11.63-8.61,14.92s-14.07,4.53-14.92,6.31c-.91,1.92-3.67,40.83-2.29,42.46,1.08,1.28,11.5-1.91,12.62,10.33,1.05,11.41-3.97,3.69-5.16,4.02-1.32.36-8.2,14.24.57,12.62-1.72.31-16.08,7.54-17.21,5.16,2.31-2.13,5.11-4.82,5.74-8.03.86-4.37,1.75-41.83-9.18-36.14-2.55-12.97-15.24-15.57-26.39-16.06.68-6.54-1.12-12.4-3.44-18.36,13.16-1.95,7.4,13.6,8.03,15.49.37,1.1,8.21,3.08,8.61,2.87,1.01-.54,3.69-18.81,5.16-22.38,2.66-6.45,14.2-25.82,19.51-13.2Z"/>
      <path class="st2" d="M742.71,175.33c-.99.36-1.23-1.77-2.29-.57-6.22,6.98,8.97,5.74,10.33,9.18.88,2.23.29,39.79,0,45.32-4.21.52-9.8-.72-13.77,0-8.78,1.62-1.89-12.26-.57-12.62,1.19-.33,6.21,7.39,5.16-4.02-1.12-12.23-11.54-9.05-12.62-10.33-1.37-1.62,1.38-40.54,2.29-42.46.85-1.78,10.92-2.91,14.92-6.31-2.01,7.17-5.28,14.14-3.44,21.8Z"/>
      <g>
        <path class="st12" d="M591.25,123.69c.55,1.61.84,3.96,1.15,5.74-11.79,4.21-11.46,7.39-11.47,19.51,0,3.65.17,5.61,1.15,9.18l.57,28.69c4.74-8.6,16.43-13.31,25.82-13.77,1.48-.07,3.11-.11,4.59,0,9.6.74,17.01,5.1,19.51,14.92,1.67,6.54.82,12.91,1.15,19.51s-1.47,37.52,1.72,40.16c1.55,1.28,14.44.07,9.75,6.31-1.18,1.58-29.4,0-33.85.57-1.19-.48-.23-2.96-.57-3.44.2-4.88,7.3-.14,9.18-4.02.51-1.06.35-21.11,0-23.52-1.27-15.08,6.76-44.76-17.21-42.46-5.52.53-10.96,5.34-14.92,9.18-.67.64-6.16,2.71-6.88,5.16-1.03,3.49-.48,35.24,0,40.73.21,2.4-.56,9.54,1.15,10.9,1.61,1.29,9.47.21,11.47,2.87-.47.89.73,3.83-.57,4.59-1.59.92-35.22,1.06-36.72,0-7.62-5.4,10.47-6.74,10.9-7.46.52-.86-.12-16.93,0-20.08.43-11.05,2.14-86.11,0-90.07-1.14-2.11-9.9-1.17-11.47-1.72-3.23-11.75,15.31-5.48,23.52-6.88.64-.11,10.74-4.01,12.05-4.59Z"/>
        <g>
          <path class="st32" d="M549.94,99.6c-.99-5.13.63-11.15-5.74-10.9,9.91-4.84,11.2-15.11,21.8-20.08,4.9.09,7.76-1.08,2.87,3.44l14.92-1.15-9.18,5.74,16.06-1.15-10.9,4.02c11.23,1.14,24.45-2.3,4.59,5.74l16.64.57-10.9,4.02,15.49,1.72-10.9,2.87,14.34,2.87-8.61,2.87,12.62,5.74c-13.53-.26-23.33-11.27-37.29-12.05-9.79-.55-17.19,3.18-25.82,5.74Z"/>
          <path class="st32" d="M608.46,173.03c-9.38.46-21.07,5.17-25.82,13.77l-.57-28.69c.55,2,.66,6.03,2.87,6.88l2.29-11.47,2.29,10.33c2.26-4.64-2.13-15.06,2.87-16.64l.57,10.9,1.72-14.34,2.87,8.61,2.87-14.34,1.72,9.75,4.59-12.62.57,6.31,2.87-4.02c4.38,11.51-4.51,23.49-1.72,35.57Z"/>
          <path class="st32" d="M637.15,177.62c-.96,3.64-1.86,7.45-4.59,10.33-2.5-9.82-9.9-14.18-19.51-14.92,5.58-5.56,4.92-8.85,4.59-16.64l4.59,4.59-2.29-11.47c8.31-.02,1.92-2.05,6.31-7.46,4.35,2.86,2.59,7.36,2.87,12.05l4.59-4.59-1.15,14.92,5.74-9.18c.51,4.71-8.22,20.7,1.15,12.62-.19,3.36-1.45,6.54-2.29,9.75Z"/>
          <path class="st2" d="M580.92,148.94c.02-12.12-.32-15.3,11.47-19.51.02.14,1.95.73,2.29,1.72l-13.77,17.79Z"/>
          <g>
            <path class="st19" d="M618.79,104.19c.44.96.25.71,1.15,1.15.86,6.82,1.07,1.59,2.29,0,13.29-17.19,24.71-24.85,47.05-16.06-.26,0-2.53,2.19-5.16,0,2.61,5.43-9.62,1.44-13.77,1.15l6.88,4.59c-5.21,1.07-16.32-2.47-18.36,2.29l13.2,1.72-16.64.57,10.9,4.02-15.49,1.72,8.61,2.87c-5.15.95-18.17,3.11-5.74,4.59l-9.18,8.03c24.17-18.68,60.94-16.08,80.89,7.46,18.45-24.07,42.53-14.18,67.13-12.05-1.55-3.91-12.58-2.39-12.62-3.44s7.33.26,7.46-2.87l-14.34-.57,9.75-4.02-14.34.57,10.9-5.16c-5.76-.19-11.46,1.26-16.06,4.59l5.16-6.31-2.87-1.72-9.18,4.59,6.88-8.03-14.92,4.59,6.88-8.03-14.92,5.74,12.62-9.18c-5.2-.67-24.25,11.95-19.51,3.44l-7.46,2.87,4.59-4.02c6.36-1.13,13.24-6.39,20.08-6.88,17.27-1.25,33.78,8.98,43.03,22.95,1.08,1.63.97,3.02,1.72,4.59,1.18-.2.23-3.55.57-4.59,6.1-18.36,18.59-32.2,39.59-32.13,1.14,0,12.91,1.94,13.2,4.59-7.82-.27-15.42,1.41-24.67,2.29l10.9,2.87c-9.24,1.65-22.06,1.07-5.16,5.16l-15.49,2.87,11.47,2.29c-6.82.93-14.63,1.59-19.51,6.88l14.92-1.15-14.92,5.74,9.18,1.15-12.62,5.74c.85,3.12,8.78-5.85,2.29,5.74,19-20.95,55.61-27.06,76.3-5.16-4.92-5.23-8-.8-9.18-1.15-2.48-.72-15.01-9.68-16.64-6.31l9.75,6.31-20.65-6.88,12.62,9.18c-6.56-.88-16.97-9.35-21.8-4.59,4.67.17,9.77,1.83,12.62,5.74l-13.77-3.44,3.44,4.59c-.85.74-15.32-4.54-12.05.57,1.55,2.42,16.71,1.65,21.23,2.87,16.43,4.42,28.05,15.09,35,30.41-6.45-1.28-14.81-22.9-10.9-6.31l-7.46-7.46,2.87,8.61-12.62-16.06,5.74,13.77-11.47-13.77,3.44,12.62c-.64-3.37-13.17-17.4-15.49-13.2l6.31,8.61c-5.64-6.4-9.92-4.27-17.79-7.46,19.96,9.57,36.43,28.71,29.26,52.21-.24-7.63-5.96-7.64-4.02-16.64l-3.44,4.59-1.15-12.62-3.44,8.03c-.38-4.34.43-14.62-3.44-16.06l-.57,9.75-2.87-12.05-2.87,6.31-3.44-11.47-2.29,5.74-4.59-10.33v6.88c-5.23-7.39-7.7-7.04-16.06-10.33,4.65,5.8,12.57,8.94,16.64,15.49,3.48,5.6,3.75,14.12,5.74,17.79-3.38-.62-2.43,6.23-3.44,9.18-.31-.14-.8.12-1.15,0v-12.05l-2.29,3.44c-.14-5.08-5.57-3.54-2.87-9.75l-3.44,8.03-.57-7.46-4.59,2.29,1.15-8.03-2.29,1.15-2.87-8.61-.57,29.83c-1.37.24-6.56,1.01-6.88,1.15-1.29-3.16-.47-8.41-1.15-10.9-.29-1.07-3.18,1.79-3.44,0-.18-1.2,2.34-15.67,2.29-18.36l-4.59,2.29.57-8.61-2.87,10.9-3.44-4.59c1.98,11.28-5.94,22.1-2.29,3.44-5.79-1.55-2.2,22.93-5.74,19.51l-2.87-12.05c-1.36,7.48,1.32,24.42-3.44,6.88l-.57,7.46-2.87-4.02-.57,6.88c-.23.03-4.27,1.03-4.59,1.15-1.83-7.67,1.44-14.63,3.44-21.8,3.87-3.29,7.91-9.75,8.61-14.92l-10.33,11.47,1.15-9.18-8.03,11.47,2.29-11.47-8.03,13.77,1.15-11.47-9.75,17.79-.57-7.46-5.74,12.62v-9.18l-9.18,18.36c-.47-12.99,9.05-29.88,20.08-36.72,3.52-2.19,13.56-5.78,17.79-6.88,2.87-.75,21.03-1.03,20.08-4.02-9.33,3.71-6.94-5.38-14.34,1.72l3.44-6.88-11.47,8.03,5.16-8.61c-2.55-4.49-24.64,22.17-7.46-4.02l-16.06,13.77,8.03-13.77-16.06,13.77,4.59-10.33c-1.91-.87-9.19,9.36-12.05,10.33v-1.72l-1.72-.57v1.15l1.72,1.15c-5.1,1.72-11.26-9.17-16.64-11.47-2.83,2.26,6.78,7.73,6.31,8.61-1.83,3.41-17.42-11.54-21.8-10.33,3.11,3.15,8.96,5.57,8.61,10.9l-22.95-13.77,13.77,13.77-20.65-11.47,10.33,11.47-16.64-9.75c12.95,14.09,28.79,15.84,36.72,36.14,2.33,5.95,4.12,11.82,3.44,18.36-.38-.02-.77,0-1.15,0l-2.87-11.47-.57,11.47c-1.47.22-1.09-.01-1.15,0l-3.44-18.93c-4.04,2,3.87,13.25-2.29,12.62l-4.02-20.08-1.15,14.92-6.88-20.65v14.92l-6.88-18.36v14.92l-6.88-17.21,1.15,11.47-8.03-13.77v9.18c-3.76-1.36-3.72-9.75-5.74-10.33-.55-.16-2.29,4.82-8.03-3.44,19.34,24.37,30.78,47.57,12.05,76.88-.05-.07-1.35.17-1.15-1.15,6.61-6.98-.48-4.17-.57-4.59-.89-4.05,1.91-7.94,2.87-12.05l-5.16,5.16c-1.94-.72,3.22-8.72,2.87-9.75s-3.9,2.47-3.44-1.15c.27-2.12,5.76-12.35,5.74-16.06l-8.03,10.9c.84-3.22,2.1-6.39,2.29-9.75-9.37,8.08-.64-7.92-1.15-12.62l-5.74,9.18,1.15-14.92-4.59,4.59c-.28-4.69,1.48-9.19-2.87-12.05-4.39,5.41,2,7.44-6.31,7.46l2.29,11.47-4.59-4.59c.33,7.78.99,11.08-4.59,16.64-1.47-.11-3.11-.07-4.59,0-2.79-12.08,6.1-24.06,1.72-35.57l-2.87,4.02-.57-6.31-4.59,12.62-1.72-9.75-2.87,14.34-2.87-8.61-1.72,14.34-.57-10.9c-4.99,1.58-.61,11.99-2.87,16.64l-2.29-10.33-2.29,11.47c-2.21-.86-2.32-4.89-2.87-6.88-.97-3.57-1.15-5.53-1.15-9.18l13.77-17.79c-.35-.99-2.27-1.58-2.29-1.72-.31-1.77-.6-4.13-1.15-5.74,1.47-.65,12.32-6.98,11.47-8.61-2.7-1.22-10.37,4.26-10.9,4.02-1.34-.62,1.85-1.98,0-3.44-.16-.13-2.92,4.2-2.87.57l6.88-4.59-13.2,5.16c-4.6-2.95,7.33-4.73,5.74-9.18-3.62.21-14.78,12.05-13.2,5.16l7.46-7.46-16.06,9.18,6.88-11.47-13.77,10.33,7.46-10.9-14.34,9.75,5.74-11.47-12.62,11.47c-2.63-3.19,5.75-6.4,5.16-7.46-1.3-2.37-13.3,7.07-15.49,8.61.09-3.58,7.22-9.47,9.75-11.47.33-.26,2.41.66,2.29-1.15.95-.33,1.34-.87,2.29-1.15,8.62-2.55,16.03-6.28,25.82-5.74,13.96.78,23.77,11.79,37.29,12.05l-12.62-5.74,8.61-2.87-14.34-2.87,10.9-2.87-15.49-1.72,10.9-4.02-16.64-.57c19.86-8.03,6.64-4.59-4.59-5.74l10.9-4.02-16.06,1.15,9.18-5.74-14.92,1.15c4.89-4.52,2.03-3.35-2.87-3.44,17.72-8.31,36.26,1.05,45.9,16.64,3.78,6.11,4.4,13.52,6.88,18.93Z"/>
            <g>
              <path class="st32" d="M709.44,131.73c2.85-.97,10.14-11.19,12.05-10.33l-4.59,10.33,16.06-13.77-8.03,13.77,16.06-13.77c-17.18,26.18,4.91-.48,7.46,4.02l-5.16,8.61,11.47-8.03-3.44,6.88c7.4-7.1,5.01,1.99,14.34-1.72.95,2.98-17.21,3.26-20.08,4.02-4.22,1.11-14.26,4.7-17.79,6.88-5.31-12.63-16.84,6.75-19.51,13.2-1.47,3.56-4.15,21.83-5.16,22.38-.4.21-8.24-1.77-8.61-2.87-.63-1.9,5.13-17.44-8.03-15.49-7.93-20.3-23.76-22.05-36.72-36.14l16.64,9.75-10.33-11.47,20.65,11.47-13.77-13.77,22.95,13.77c.35-5.33-5.5-7.75-8.61-10.9,4.38-1.22,19.97,13.74,21.8,10.33.47-.88-9.14-6.34-6.31-8.61,5.38,2.31,11.54,13.2,16.64,11.47Z"/>
              <g>
                <path class="st32" d="M622.23,105.34c-1.23,1.59-1.44,6.82-2.29,0,.4.19,1.58-.1,2.29,0Z"/>
                <path class="st2" d="M684.19,174.18c-1.13.25-20.39,8.38-21.23,9.18-3.01,2.87-1.04,4.35-1.72,6.88-.94,3.47-.74,11.61-2.87,12.62-2.41,1.14-4.4-1.29-4.59-1.15-4.38,3.23-4.65,11.89-9.75,4.59,18.73-29.31,7.29-52.51-12.05-76.88,5.74,8.26,7.49,3.29,8.03,3.44,2.02.57,1.97,8.97,5.74,10.33v-9.18l8.03,13.77-1.15-11.47,6.88,17.21v-14.92l6.88,18.36v-14.92l6.88,20.65,1.15-14.92,4.02,20.08c6.16.63-1.74-10.62,2.29-12.62l3.44,18.93Z"/>
                <path class="st2" d="M642.89,205.16c-2.62,2.77-5.75,2.47-9.18,2.29-.33-6.59.52-12.97-1.15-19.51,2.73-2.88,3.63-6.68,4.59-10.33l8.03-10.9c.02,3.71-5.47,13.94-5.74,16.06-.45,3.62,3.09.13,3.44,1.15s-4.8,9.03-2.87,9.75l5.16-5.16c-.96,4.11-3.76,8-2.87,12.05.09.42,7.18-2.39.57,4.59Z"/>
                <path class="st18" d="M688.78,174.18c-.71,0-3.27-.03-3.44,0l.57-11.47,2.87,11.47Z"/>
                <path class="st24" d="M605.59,106.48c3.13,1.98,6.34,3.23,8.61,6.31-2.17.56-9.37-3.56-8.61-6.31Z"/>
              </g>
              <g>
                <path class="st32" d="M775.99,105.34c-.35,1.04.61,4.39-.57,4.59-.75-1.57-.64-2.96-1.72-4.59h2.29Z"/>
                <path class="st32" d="M778.28,175.33c-3.45,1.5-11.23,9.96-13.2,13.77.4-16.48-1.22-17.01-17.79-14.92l.57-6.88,2.87,4.02.57-7.46c4.77,17.53,2.08.59,3.44-6.88l2.87,12.05c3.53,3.42-.06-21.06,5.74-19.51-3.65,18.65,4.27,7.84,2.29-3.44l3.44,4.59,2.87-10.9-.57,8.61,4.59-2.29c.04,2.69-2.47,17.16-2.29,18.36.27,1.79,3.15-1.07,3.44,0,.67,2.49-.15,7.74,1.15,10.9Z"/>
                <path class="st32" d="M803.53,175.33c-7.42-2.61-10.79-2.49-18.36-1.15l.57-29.83,2.87,8.61,2.29-1.15-1.15,8.03,4.59-2.29.57,7.46,3.44-8.03c-2.7,6.21,2.72,4.67,2.87,9.75l2.29-3.44v12.05Z"/>
                <path class="st0" d="M799.51,115.66c3.86.22.41,4.44-2.29,3.44-2.05-1.45,2.09-3.45,2.29-3.44Z"/>
                <polygon class="st32" points="709.44 131.73 707.72 130.58 707.72 129.43 709.44 130.01 709.44 131.73"/>
              </g>
            </g>
          </g>
        </g>
      </g>
      <g>
        <path class="st19" d="M1044.49,39.93c-3.79-2.04-15.9-6.14-8.61,0-8.29,1.23-21.65-5.23-27.54,2.29,5.36-1.78,16.23-1.82,20.65,2.29l-30.98,2.29c-1.65,2.66.4,2.21,2.29,2.29,5.45.23,15.53-3.87,21.23.57-10.72,1.31-29.69.67-35,10.9,6.29-4.36,18.3-8.19,24.67-2.87-7.58,1.56-23.66,2.22-25.82,10.9,5.66-3.82,10.05-5,16.64-2.87.2,1.21-21.52,5.54-21.23,10.9l12.05-2.87c-6.46,4.06-10.23,6.91-13.77,13.77,33.22-31.21,84.18-26.99,113.02,7.46-2.28.31-14.28-13.07-15.49-9.75-.17.46,5.46,3.68,1.72,4.02l-18.36-12.62,12.62,13.77c-3.22-.07-28.73-16.6-28.11-10.9l12.05,10.9c-10.47-3.99-19.58-11.44-30.98-12.62l18.36,13.77c-2.41-.33-28.19-12.57-25.24-6.88l11.47,8.03-27.54-6.88,12.62,8.03c-6.43-1.63-36.27-6.29-17.21,0l-15.49,2.87c31.62-2.62,67.72-.32,88.35,27.54,2.47,3.33,14.07,27.7,13.77,29.83-.95,6.64-8.31-15.3-9.18-16.06l-3.44,3.44-10.9-18.93c-1.9.71,9.25,19.62,2.87,15.49l-13.2-21.23,4.59,19.51-13.77-20.65c-2.13.73,7.14,13.71,2.29,16.06l-11.47-19.51,1.15,17.21-12.62-19.51c-1.55,1.95,6.98,17.09,1.72,14.34l-9.75-13.2c1.42,3.62,5.94,11.01,0,12.62-1.12-.56.32-6.72-4.59-1.15l-3.44-9.18-3.44,5.74-3.44-5.74v5.74l-8.03-17.21,1.15,14.92c-2.22.55-6.94-22.74-10.9-12.62-.41-.44-4.68-2.49-5.16-2.29-.94,1.92-1.94,3.83-2.87,5.74-2.48,5.11-3.43,10.7-4.02,17.21l-2.87-12.05-2.29,18.36-4.59-9.18v17.21c-4.45.94-2.73-7.86-4.02-9.75l-1.15,14.92-6.31-8.61,3.44,18.36-6.88-11.47,3.44,17.21-6.88-9.18c1.09,5.9,5.7,13.23.57,17.79-13.35-20.62,1.91-40.48,6.88-60.81l-12.62,18.36c-4.3-3.62,1.94-9.05,1.72-13.2l-12.05,17.79v-13.77l-8.03,17.21c-5.96.27,2.64-18.72,1.15-20.65l-12.62,26.39c-2.73-7.74,2.88-14.33,3.44-21.8l-11.47,27.54c-5.44-2.22,3.4-19.92,1.15-20.65l-9.75,24.67c-4.39-3.28.17-7.78-1.72-12.05l-5.74,17.21-2.87-2.87-1.72,7.46c-.2-34.31,26.87-51.6,56.22-60.81,9.42-2.95,15.81,1.64,23.52-9.75l-21.23,6.31,6.88-9.18-18.36,8.03,10.33-11.47-21.8,11.47,15.49-13.2c-1.69-3.8-21.93,10.11-24.67,12.05l11.47-13.77-21.8,14.92,9.18-13.77-22.95,14.92,4.59-10.33-18.36,16.06c.78-4.11,6.79-9.79,9.75-12.62.88-.07,1.27-.17,1.15-1.15.2-.15.75.11,1.15,0,.7-.19,1.29,0,1.15-1.15,30.47-18.02,56.11-24.44,87.21-1.15h1.15c1.84-38.29,44.2-65.95,78.03-44.75Z"/>
        <path class="st29" d="M952.12,109.93c2.46.81-2.7,7.4-3.44,8.03-2.46-.81,2.7-7.4,3.44-8.03Z"/>
        <polygon class="st32" points="928.02 112.22 928.6 113.94 926.88 114.51 926.3 113.94 928.02 112.22"/>
      </g>
      <path class="st0" d="M918.27,228.11c1.71,9.29-8.76,19.29-17.21,19.51-3.83.1-8.82-2.06-13.77-2.29l2.87-3.44-12.05-9.18c1.22-.15,13.74-4.95,14.92-5.74l-.57,12.62c1.14.92,8.51-7.2,9.75-8.03,5.25-3.48,14.58-11.51,16.06-3.44Z"/>
      <path class="st18" d="M878.11,232.7l12.05,9.18-2.87,3.44c-11.25-.54-43.67,2.82-28.11-16.06,6,3.01,12.19,4.27,18.93,3.44Z"/>
      <g>
        <path class="st12" d="M905.65,204.02c-.49,5.25-3.65,13.11-6.88,17.21-.31.39-5.4,5.51-5.74,5.74-1.17.78-13.7,5.59-14.92,5.74-6.74.83-12.94-.44-18.93-3.44-15.55,18.89,16.87,15.52,28.11,16.06,4.95.24,9.94,2.39,13.77,2.29,5.69,3.84,10.68,7.01,12.62,13.77,13.25,46.08-71.79,47.98-74.58,20.08-1.43-14.3,11.85-22.42,24.1-25.24-39.56-4.56-10.08-28.61-10.33-30.98-.08-.8-7.1-6.96-9.18-13.2-2.65-7.94-3.16-16.24,0-24.1,9.02-22.38,65.75-24.78,61.96,16.06Z"/>
        <path class="st2" d="M869.51,256.8c45.03-8.76,43.49,38.87,5.74,36.72-28.26-1.61-28.62-32.27-5.74-36.72Z"/>
        <path class="st32" d="M888.44,216.64c-5.58-1.66-11.5-1.61-17.21-2.29-6.52-6.12-6.12-18.55-14.92-20.65,6.1-30.62,49.54-12.52,32.13,22.95Z"/>
        <path class="st28" d="M871.23,214.34c5.71.69,11.64.64,17.21,2.29-7.7,15.69-23.77,11.82-29.83-3.44,5.46-1.35,8.11.6,12.62,1.15Z"/>
        <path class="st2" d="M871.23,214.34c-4.52-.54-7.16-2.49-12.62-1.15-3.03-7.64-3.91-11.42-2.29-19.51,8.79,2.11,8.39,14.53,14.92,20.65Z"/>
      </g>
      <path class="st8" d="M902.21,231.55c-1.25.83-8.61,8.96-9.75,8.03l.57-12.62c.34-.23,5.43-5.35,5.74-5.74l3.44,10.33Z"/>
      <path class="st2" d="M953.84,214.34c1.31-12.98,5.58-22.53,15.49-30.98,2.79,10.24,17.77,11.23,18.93,0,1.86-4.72,4.54,5.92,4.59,6.31.27,2.06,1.67,11.14-.57,12.05-14.24-.83-26.52,5.75-38.44,12.62Z"/>
      <path class="st2" d="M1010.07,246.47l-8.03-65.4c2.06,1.18,6.91.5,8.03,2.87,1.34,2.83,1.38,59.73,0,62.54Z"/>
      <path class="st18" d="M482.24,230.41c6.58-17.75,15.78-18.58,32.13-24.1,4.11,2.92,11.34,6.05,13.77,10.9,13.39,26.75-27.25,56.25-45.9,13.2Z"/>
      <path class="st32" d="M535.03,165c-2.16-.3-2.64-.54-4.02-2.29-3.3,3.43-.6,18.5-1.72,20.08-1.39,1.97-14.33-2.23-12.62,6.31-3.97-2.86-10.65-4.96-14.34-8.03-38.3-31.9,21.12-65.04,32.7-16.06Z"/>
      <g>
        <path class="st12" d="M685.34,174.18c.17-.03,2.73,0,3.44,0,.38,0,.77-.02,1.15,0,11.15.5,23.84,3.09,26.39,16.06,2.67,13.57-3.31,41.49,0,53.36,2.09,7.49,9.01.61,10.9.57,4.33-.09,2.65,2.23,2.87,2.29-14.47,25.67-26.25-.79-28.11-1.15-.64-.12-7.43,8.19-9.18,9.18-29.42,16.64-48.73-26.12-16.06-40.16,5.82-2.5,15.03-2.52,20.08-4.59,13.26-5.44,4.25-38.5-14.92-26.39-5.28,3.34-14.1,28.79-20.65,6.88.68-2.53-1.29-4.02,1.72-6.88.84-.8,20.1-8.93,21.23-9.18.06-.01-.33.22,1.15,0Z"/>
        <path class="st18" d="M701.41,237.29c-8.68,25.8-44.94-.95-18.36-17.21,3.74,9.15,7.24,17.66,18.36,17.21Z"/>
        <path class="st2" d="M701.41,237.29c-11.12.45-14.62-8.06-18.36-17.21,5.54-3.39,11.92-3.32,17.79-5.74,3.23,1.23,1.76,19.42.57,22.95Z"/>
      </g>
      <g>
        <path class="st2" d="M1119.07,181.07c-5.88,16.44-20.89,30.62-12.62,49.34-4.23,9.55-5.28,4.85-7.46,6.88-5.85,5.46-7.36,11.97-16.64,11.47-.46-.72,3.74-10.27,1.72-11.47-4.54-2.7-3.8,15.21-13.2,2.87l3.44-20.08c6.71.2,16.63-1.77,21.23,2.29,7.55-15.16-15.85-13.24-25.82-12.62,2.99-13.81,11.04-14.37,16.64-25.24l-1.15,9.18c14.05-22.9.8,6.92,11.47-10.33,2.72,10.15,2.22-4.11,5.74,4.59l3.44-8.03v8.03l4.59-8.03c4.26.78-3,6.81,0,8.03.51.21,6.34-5.89,8.61-6.88Z"/>
        <path class="st24" d="M1065.14,218.93l.57,13.77,5.16-13.77c2.94.21,3.26,1.14,3.44,1.15l-3.44,20.08c9.39,12.34,8.65-5.57,13.2-2.87,2.02,1.2-2.18,10.75-1.72,11.47l13.77,1.72c-1.38,1.93-2.65,10.21-5.16,10.9-2.11.58-28.39-6.81-30.41-12.05,1.73-9.52-5.56-25.47,2.29-30.41.73.11,1.55-.08,2.29,0Z"/>
        <path class="st24" d="M1064,209.75c1.81-.26,3.88.11,5.74,0,9.97-.62,33.37-2.54,25.82,12.62-4.6-4.06-14.51-2.09-21.23-2.29-.18,0-.5-.93-3.44-1.15-1.51-.11-3.05.3-5.74,0-.74-.08-1.57.11-2.29,0-1.8-.28-5.01-.47-6.31,1.15-5.27-8.99.36-9.32,7.46-10.33Z"/>
        <g>
          <path class="st12" d="M1273.98,185.66c-.14,1.22-.51,3.41,1.15,3.44.27,1.33-.15,3.11,0,4.59.34,3.32-.15,6.95,0,10.33.42,9.48-.67,19.24,0,28.69.44,6.2-1.11,19.43,9.18,11.47,1.05.6,4.45-1.04,5.74,1.72-2.2,1.53-2.78,4.56-4.59,6.31-9.82,9.51-21.19,4.3-24.67-8.03-13.9,24.08-47.36,14.53-41.88-14.34,3.64-19.18,40.41-18.91,42.46-24.1,2.88-7.3-.5-24.88-10.9-25.82-12.75-1.14-13.19,10.66-18.93,17.21-7.44,3.36-14.97-4.28-10.33-11.47,6.72-10.41,45.18-18.43,52.78,0Z"/>
          <path class="st32" d="M1284.31,244.18c-10.29,7.96-8.74-5.27-9.18-11.47,2.33,7.93,2.53,7.71,9.18,11.47Z"/>
          <path class="st32" d="M1275.13,204.02c-.15-3.38.34-7,0-10.33v10.33Z"/>
          <path class="st32" d="M1258.49,213.19c2,.03,2.74-.07,4.02,1.72,1.7,9.66-1.09,27.98-12.05,31.55-15.95,5.2-24.33-15.98-10.33-26.39,1.39-1.03,17.38-6.9,18.36-6.88Z"/>
        </g>
        <g>
          <path class="st24" d="M1197.1,137.46c-4.69.59-9.64-.71-14.34,1.15l4.59,3.44h-11.47l6.31,4.02-15.49,4.02,5.16,2.87-4.02,5.16c19.2-14.59,48.11-11.72,64.83,5.16l-18.93-7.46,5.74,8.03-18.36-9.18,8.03,10.33c-4.24-4.55-10.2-5.48-16.06-6.88l9.18,8.03-20.65-5.74c1.43,4.91,13.69,1.33,12.62,8.03l-14.92-4.59,2.29,5.74-10.9.57c18.06.81,37.75.24,50.49,15.49-4.64,7.19,2.89,14.84,10.33,11.47-.33.37.62,2.87-.57,3.44-3.77,1.83-14.02-1.9-16.64-5.74,3.7-5.02-.94-2.12-1.15-2.29-2.82-2.38-4.51-5.74-7.46-8.03l2.29,10.33-12.62-16.06,5.74,12.62-12.62-11.47,4.59,12.62-10.9-9.75c8.47,14.07,16.48,23.44,13.77,41.31-1.52,10.03-3.62-1.39-6.31,5.16l.57-9.75-4.59,4.59,3.44-16.06-6.31,9.75,1.72-12.05-4.59,5.74v-12.62l-4.02,6.31-.57-10.9-4.02,5.16-.57-8.61c-3.41,13.08-4.23-8.76-11.47-12.05s-6.65,2.49-12.62,4.59c.2-8.08-.77-17.44,0-25.24l6.88,5.16c.28-8.46,3.26-16.35,9.18-22.38,11.44-3.19,2.69-9.47,16.06-8.61l-2.87,5.16c5.05-.39,17.96-4.7,21.23,0Z"/>
          <path class="st24" d="M1131.7,197.13c-4.84-4.31-5.2-13.24-2.29-18.93-.24-.54-9.56,2.53-10.33,2.87-2.27.99-8.1,7.09-8.61,6.88-3-1.22,4.26-7.25,0-8.03l-4.59,8.03v-8.03l-3.44,8.03c-3.52-8.7-3.02,5.56-5.74-4.59-10.67,17.24,2.57-12.57-11.47,10.33l1.15-9.18c-5.6,10.87-13.65,11.43-16.64,25.24-1.86.11-3.93-.26-5.74,0,10.45-32.41,32.65-38.41,64.26-38.44-5.83-3.46-9.92.34-2.29-6.88-5.41-2.89-5.5-.04-8.61,4.02l-2.29-5.74c-6.03,8.97-4.12,1.49-1.15-3.44l-9.18,4.59,5.74-6.88-9.18,5.74,1.15-5.74c-8.94,6.29-4.94.42-5.74,0-.53-.28-8.38,2.54-10.9-.57,11.23-9.3,24.83-4.11,37.29-.57l.57-7.46-3.44,4.59c1.61-5.78-1.43-9.39-2.29-13.2l13.77,4.02c-2.61,14.11,3.31,41.02,0,53.36Z"/>
          <path class="st24" d="M1131.7,197.13c-.62,2.29-1.12,2.17-1.15,2.29-.04.19-2.7-.31-3.44,1.72-.45,1.24.08,11.12-1.72,10.9l-2.29-10.33-2.29,9.18-5.16-5.16-.57,9.75-2.87-4.02v13.77l-2.87-4.02c.85,5.45-2.41,8.15-2.87,9.18-8.27-18.72,6.74-32.9,12.62-49.34.77-.34,10.09-3.4,10.33-2.87-2.9,5.69-2.55,14.62,2.29,18.93Z"/>
          <path class="st2" d="M1162.68,140.91c-5.92,6.02-8.9,13.91-9.18,22.38l-6.88-5.16c1.55-15.69,3.3-13.66,16.06-17.21Z"/>
          <g>
            <path class="st12" d="M1197.1,137.46c-3.26-4.7-16.18-.39-21.23,0l2.87-5.16c-13.38-.86-4.62,5.42-16.06,8.61-12.76,3.56-14.52,1.52-16.06,17.21-.77,7.8.2,17.16,0,25.24-.2,8.15-1.35,57.9,0,61.39,1.44,3.72,11.04,3.81,14.92,4.02,11.85.63,17.77-1.02,26.96-8.03,2.76-2.1,12.56-16.56,15.49-12.05.77,1.19-6.75,24.99-9.75,25.82-3.6,1.17-72.23,1.43-75.73,0-11.05-4.51,11.51-6.25,12.05-7.46,2.65-5.97.78-39.3,0-47.62.03-.12.53,0,1.15-2.29,3.31-12.33-2.61-39.25,0-53.36l-13.77-4.02c-.05-.23-2.7-2.75-.57-4.59,3.46-1.98,38.25,1.84,45.9,0,.68-.16,5.62-5.86,11.47-6.88,2.8-.49,30.75-.32,29.26,2.87l-5.74,3.44c12.38.89,7.93,1.73-1.15,2.87Z"/>
            <path class="st32" d="M1150.63,140.91c2.06.76-2.02,5.28-3.44,4.59-2.57-1.25,3.14-4.7,3.44-4.59Z"/>
          </g>
          <g>
            <path class="st18" d="M1159.23,178.77c-.46,7.09,12.52,50.83,11.47,53.36-.27.65-5.22,1.1-5.74,2.29-1.62,3.74-1.37,10.2-3.44,14.34-3.87-.21-13.47-.29-14.92-4.02-1.35-3.49-.2-53.24,0-61.39,5.97-2.1,5.66-7.76,12.62-4.59Z"/>
            <path class="st2" d="M1151.78,184.51c4.5-1.06,5.18,26.35,6.31,30.41,1.29,4.65,5.59,8.81,7.46,13.2-2.5-.18-17.27-2.13-17.79-2.87-1.18-1.68,2.01-40.26,4.02-40.73Z"/>
          </g>
        </g>
        <path class="st18" d="M1070.88,218.93l-5.16,13.77-.57-13.77c2.69.3,4.22-.11,5.74,0Z"/>
      </g>
    </g>
  </g>
</svg>